<svg width="800" height="800" viewBox="0 0 800 800" fill="none" xmlns="http://www.w3.org/2000/svg">
<g clip-path="url(#clip0_411_2)">
<mask id="mask0_411_2" style="mask-type:luminance" maskUnits="userSpaceOnUse" x="0" y="-1" width="800" height="801">
<path d="M0 -0.333246H800V799.667H0V-0.333246Z" fill="white"/>
</mask>
<g mask="url(#mask0_411_2)">
<path class="Gyeonggi" fill= "white" d="M387.893 278.667C387.107 280.333 387.053 283.947 387.667 284.56C388.28 285.16 390.227 287.333 389.107 289.44C388 291.56 387.227 297 385 299.227C382.773 301.44 385.893 310.56 384.44 312C383 313.44 382.107 314.44 382.107 314.44C382.107 314.44 380.227 316.56 380.227 317.893C380.227 319.227 375.227 322.107 375.227 323.227C375.227 324.333 372 327 372 327.667C372 328.333 366.667 334.44 363.333 335.227C363.333 335.227 360.107 336.56 355.107 336.56C350.107 336.56 347.893 343.227 346.667 345.44C345.44 347.667 337.44 348.44 336.333 348.44C335.227 348.44 331.107 344.107 328.773 344.107C326.44 344.107 319.387 342.387 317.44 344.333C315.493 346.28 310.907 348.907 304.067 347.893C304 347.28 303.16 346.933 302.72 346.493C302.053 345.827 293 339.28 292.44 337.053C291.893 334.827 297.387 336.333 297.773 334.893C298.173 333.44 300.227 330.893 298.053 330.613C295.893 330.333 294.107 332.16 293.667 332.16C293.227 332.16 292.84 330.947 292.387 330.947C291.947 330.947 290.84 333.107 290.107 333.827C289.387 334.56 286.107 332.773 286.107 331.613C286.107 330.44 287.893 330.333 288.44 329.773C289 329.227 287.947 322.28 288.56 321.667C289.173 321.053 292.613 321.947 293.227 321.333C293.84 320.72 294.72 319.56 294.107 318.947C293.493 318.333 287.44 318.56 286.773 319.227C286.107 319.893 284.2 322.133 283.053 323.28C281.92 324.413 280.387 319.56 280.387 318.72C280.387 317.893 279 316.667 279 315.893C279 315.107 280.533 315.587 281.107 315C281.693 314.413 280.28 310.387 279.507 309.613C278.72 308.84 283.56 305.16 284.84 305.16C286.107 305.16 290.44 309.947 291.773 309.947C293.107 309.947 292.773 305.56 295.773 305.56C298.773 305.56 294.893 301.84 293.773 301.333C292.667 300.84 288.387 297.333 285.773 297.333C284.893 297.333 285.28 299 284.507 299C283.72 299 282.36 297.36 283.72 296C284.573 295.147 284.92 293.493 284 292.587C283.08 291.667 277.92 287.16 277.92 285C277.92 282.84 279.587 282.333 279.587 281.16C279.587 280 279.253 272.493 278.587 271C277.92 269.507 271.84 261.16 269.667 261.16C267.493 261.16 267.627 265.96 266.667 266.92C265.707 267.88 263.667 266.413 262.413 265.16C261.16 263.92 260.92 267.507 260.16 267.507C259.413 267.507 257.84 265.08 257.08 265.08C256.333 265.08 252.16 264.173 252.16 261.747C252.16 259.333 255.84 261.333 256.587 259.587C257.333 257.827 254.493 254.613 253.893 254.613C253.28 254.613 252.667 257.773 251.493 257.773C250.333 257.773 248.947 256.28 247.493 256.28C246.053 256.28 244.387 255.053 244.387 253.16C244.387 251.28 245.36 250.08 246 249.44C246.64 248.8 247.973 247.533 248.56 248.107C249.133 248.693 248.84 252.227 248.84 252.227C248.84 252.227 251.253 253.973 251.44 253.773C251.64 253.587 253 252.493 253 251.507C253 250.493 252.253 244.333 252.253 242.667C252.253 241 256.253 238.587 257.333 238.587C258.413 238.587 264.933 245.48 266.107 246.667C267.64 248.2 276 248.493 276 248.493C276 248.493 276.667 245 278.333 245C280 245 280.16 247.507 281 248.333C281.84 249.16 279.493 257.333 280.667 257.333C281.4 257.333 289.12 263 295.2 267.347C293.867 268.68 295 279.893 296.44 281.333C304.387 289.28 315.44 284.68 316.533 285.773C318.853 288.107 320.667 286.107 322.44 285.333C324.227 284.56 324.667 277.667 327.893 277.667C331.107 277.667 332.56 274.893 332.56 273.56C332.56 272.227 330.68 270.44 329.893 269.653C329.107 268.867 326.947 270.72 325.893 271.773C324.827 272.827 323.08 272.667 323.08 269.653C323.08 266.627 325.893 262 325.893 260.667C325.893 259.333 324.093 257.8 323.08 256.773C322.067 255.76 316 256.333 314.333 256.773C312.667 257.227 311.667 260.44 310.107 260.44C308.56 260.44 306.053 261.28 304.667 262.667C303.28 264.053 300.52 268.947 300.52 268.947C294.56 264.587 284.453 257.093 283.747 255.92C282.747 254.253 283.213 244.293 282.747 243.827C282.293 243.373 281.173 240.84 287.493 238.08C293.84 235.333 289.373 233.787 288.507 234.667C287.627 235.547 284.08 237.507 282.587 237.507C282.387 237.507 282.133 237.627 281.827 237.84C280.493 223.48 288.667 225 289.667 224C290.667 223 292.92 218.413 294.827 216.493C296.747 214.587 302.16 212 305.667 210.84C309.173 209.667 307.253 206.747 309.333 204.667C311.413 202.587 313.333 202.173 314.827 202.173C316.333 202.173 321.84 194.333 323 191.507C323.027 191.44 323.053 191.387 323.08 191.32C325.08 190.867 327.213 190.6 328.893 191.227C332.44 192.56 334.227 196.56 334.227 199.667C334.227 202.773 337.773 199.667 340 199.667C342.227 199.667 343.773 204.107 343.773 206.333C343.773 208.56 352.893 207.227 356.893 208.333C360.893 209.44 357.773 218.773 359.107 220.107C360.44 221.44 362.56 220 364 221.44C365.44 222.893 366.227 226.333 367.107 226.333C368 226.333 370.56 227.333 371.773 228.56C373 229.773 373.107 233 371.773 234.333C370.44 235.667 364.893 236.773 364.893 239.667C364.893 242.56 364.44 244.107 365.893 244.107C367.333 244.107 365.84 250.28 364.893 251.227C363.947 252.16 364.44 255.893 365.333 255.893C366.227 255.893 364.72 261.84 365.773 262.893C366.84 263.947 371.56 263.44 373.893 264.107C376.227 264.773 377.613 268.053 378.893 269.333C380.173 270.613 383.107 269.333 384.667 269.333C386.227 269.333 387.773 271.107 390.893 271.107C394 271.107 392.72 276.173 392 276.893C391.28 277.613 388.667 277 387.893 278.667Z" stroke="black" stroke-width="1.5" stroke-miterlimit="10" stroke-linecap="round" stroke-linejoin="round"/>
<path class="NorthChungCheong" fill="white" d="M471.494 336.041C469.574 336.587 468.746 334.254 466 335.079C463.253 335.921 461.84 339.587 461.174 341.079C460.507 342.587 452.827 348.079 451.079 350.841C449.334 353.587 451.84 359.413 450.16 361.079C448.494 362.746 442.92 364.413 441.079 364.413C439.254 364.413 436.827 358.254 435.254 357.507C433.667 356.746 428.254 357.667 428.827 359.667C429.412 361.667 428.667 363.001 426.92 363.001C425.174 363.001 424.16 360.413 422.507 359.921C420.827 359.413 420.12 360.881 419.412 361.587C418.707 362.293 416 361.001 413.173 363.827C410.333 366.667 412.334 370.001 414.16 371.827C416 373.667 415.746 375.827 413.746 376.334C411.746 376.841 410.254 373.587 407.667 373.079C405.079 372.587 400 374.921 398.079 375.746C396.16 376.587 398.079 378.841 400.16 379.587C402.254 380.334 404.412 382.587 404.412 383.827C404.412 385.079 403.667 385.667 401.92 385.667C400.16 385.667 398.827 383.001 397.334 383.001C395.84 383.001 393.454 386.547 393 387.001C392.547 387.454 387.587 386.746 386.92 388.254C386.254 389.746 386.507 389.079 391.587 391.254C396.667 393.413 398.334 399.161 398.334 400.001C398.334 400.841 396.294 401.721 395.667 402.346C395.04 402.987 395.494 413.413 395.494 415.827C395.494 418.254 394.88 419.214 394.254 419.827C393.627 420.454 392.08 422.494 392.507 423.921C392.933 425.334 395.747 424.413 396.854 424.413C397.947 424.413 398.92 422.587 400.254 423.079C401.587 423.587 402.787 426.959 403.92 428.079C405.04 429.214 404.88 428.041 405.587 427.334C406.294 426.626 408.92 426.746 410.507 426.746C412.079 426.746 412.746 434.413 411.079 434.841C409.412 435.254 406.507 441.334 406.507 442.746C406.507 444.174 402.92 447.413 402.412 447.921C401.92 448.413 401.84 451.746 400.16 451.746C398.507 451.746 398.16 454.174 396.854 454.174C395.534 454.174 394.414 455.001 391 455.921C387.587 456.841 380.254 456.254 373.174 449.921C372.947 449.721 372.733 449.519 372.533 449.321C366.28 443.121 369.4 435.934 368.827 434.001C368.254 432.001 360.827 429.667 358.92 429.667C357 429.667 355.414 422.921 360.827 416.746C366.254 410.587 363.174 409.254 357.92 407.413C354.96 406.387 351.387 403.466 348.734 401.013C346.667 399.107 345.147 397.481 344.92 397.254C344.373 396.707 344.04 390.881 343.333 390.174C342.627 389.454 344.253 385.079 343.333 384.174C342.413 383.254 339.547 385.214 338.507 384.174C337.454 383.121 338.253 379.587 338.827 376.841C339.413 374.079 344.253 370.254 347.587 370.254C350.92 370.254 351.253 369.161 351.253 367.667C351.253 366.174 342.414 358.587 341.414 357.587C340.414 356.587 341 355.254 340.507 353.587C340 351.921 336.333 348.441 336.333 348.441C337.44 348.441 345.44 347.667 346.667 345.441C347.893 343.227 350.107 336.561 355.107 336.561C360.107 336.561 363.333 335.227 363.333 335.227C366.667 334.441 372 328.334 372 327.667C372 327.001 375.227 324.334 375.227 323.227C375.227 322.107 380.227 319.227 380.227 317.894C380.227 316.561 382.107 314.441 382.107 314.441C382.107 314.441 384 322.494 389 322.494C394 322.494 401.84 323.441 401.84 318.466C401.84 313.507 404.667 310.174 406.507 310.174C408.333 310.174 414 319.334 416.16 319.334C418.334 319.334 419.174 314.667 421.334 314.667C423.494 314.667 427.667 317.667 428.827 313.507C430 309.334 430.333 317.401 440 316.374C449.667 315.334 432.92 321.746 437.667 326.494C442.412 331.254 445.16 321.667 450 326.494C454.84 331.334 459.333 326.174 464.667 329.001C468.667 331.121 469.054 334.094 471.494 336.041Z" stroke="black" stroke-width="1.5" stroke-miterlimit="10" stroke-linecap="round" stroke-linejoin="round"/>
<path class="Gangwon" fill ="white" d="M541.053 325.094C538.359 325.094 533.293 328.12 530.747 330.667C528.213 333.214 530 336.84 525.92 336.412C521.84 336 520.92 332.174 517.84 332.174C514.747 332.174 510.413 336.494 508.08 336.494C505.747 336.494 506 335.412 503.08 333.827C500.16 332.254 496.507 334.587 494.507 333.587C492.507 332.587 493.747 325.587 488.413 326.494C483.08 327.412 484.12 334.959 483.173 335.92C482.213 336.88 480.747 339 474.827 337.587C468.92 336.174 470 331.827 464.667 329C459.333 326.174 454.84 331.334 450 326.494C445.16 321.667 442.413 331.254 437.667 326.494C432.92 321.746 449.667 315.334 440 316.374C430.333 317.399 430 309.334 428.827 313.507C427.667 317.667 423.493 314.667 421.333 314.667C419.173 314.667 418.333 319.334 416.16 319.334C414 319.334 408.333 310.174 406.507 310.174C404.667 310.174 401.84 313.507 401.84 318.466C401.84 323.44 394 322.494 389 322.494C384 322.494 382.107 314.44 382.107 314.44C382.107 314.44 383 313.44 384.44 312C385.893 310.56 382.773 301.44 385 299.227C387.227 297 388 291.56 389.107 289.44C390.227 287.334 388.28 285.16 387.667 284.56C387.053 283.947 387.107 280.334 387.893 278.667C388.667 277 391.28 277.614 392 276.894C392.72 276.174 394 271.107 390.893 271.107C387.773 271.107 386.227 269.334 384.667 269.334C383.107 269.334 380.173 270.614 378.893 269.334C377.613 268.054 376.227 264.774 373.893 264.107C371.56 263.44 366.84 263.947 365.773 262.894C364.72 261.84 366.227 255.894 365.333 255.894C364.44 255.894 363.947 252.16 364.893 251.227C365.84 250.28 367.333 244.107 365.893 244.107C364.44 244.107 364.893 242.56 364.893 239.667C364.893 236.774 370.44 235.667 371.773 234.334C373.107 233 373 229.774 371.773 228.56C370.56 227.334 368 226.334 367.107 226.334C366.227 226.334 365.44 222.894 364 221.44C362.56 220 360.44 221.44 359.107 220.107C357.773 218.774 360.893 209.44 356.893 208.334C352.893 207.227 343.773 208.56 343.773 206.334C343.773 204.107 342.227 199.667 340 199.667C337.773 199.667 334.227 202.774 334.227 199.667C334.227 196.56 332.44 192.56 328.893 191.227C327.213 190.6 325.08 190.867 323.08 191.32C324.973 186.787 326.84 184.494 339.333 184.494C342.32 184.494 341.573 181.507 344.827 181.507C353.12 181.507 364.693 181.774 372.507 180.987C378.373 180.399 381.173 178.254 384.16 180.174C397.667 188.84 405.333 183.667 411.493 184.494C417.667 185.334 417.667 184.667 424 178.334C430.333 172 433.773 164.107 435.107 158.107C436.44 152.107 443.493 148.414 443.493 148.414C444.08 149 448.667 154.254 449.173 162C449.667 169.747 456.333 168.414 459.253 180.334C462.16 192.254 467.333 197.827 468.507 200C469.667 202.174 469.413 212 479.173 218.746C488.92 225.507 493.08 244.667 495.173 245.16C497.253 245.667 506.92 255.827 508.587 259.827C510.253 263.827 509.08 266.84 513.253 269C517.413 271.16 520.253 287.507 522.92 288.92C525.587 290.334 530.507 292.894 530.507 301.92C530.507 303.667 537.587 309.254 538.747 312.84C539.92 316.412 538.92 322.587 540.253 322.587C540.747 322.587 540.88 323.667 541.053 325.094Z" stroke="black" stroke-width="1.5" stroke-miterlimit="10" stroke-linecap="round" stroke-linejoin="round"/>
<path class="SouthJeolla" fill ="white" d="M307.667 558.84C306.827 559.667 301.84 562.667 301.84 564.173C301.84 565.667 297.667 564.333 296.333 563C295 561.667 282.08 564.08 280.827 562.84C279.587 561.588 273.667 556.84 273.667 550.173C273.667 543.507 278.16 542.333 280.333 542.333C282.507 542.333 285.773 545.827 287.667 545.827C289.667 545.827 290.507 543.507 294.507 543.507C298.507 543.507 299.827 546.507 301.173 547.827C302.507 549.16 306.16 548.507 307.667 550C309.173 551.493 308.507 558 307.667 558.84ZM386.507 623.333C386.16 623 387 621.387 385.44 620.56C383.893 619.72 385.947 614.053 384.173 613.107C382.387 612.173 384.28 604.227 383.107 603.84C380.68 603.027 380.507 600.44 380.507 599.227C380.507 598 384.667 593.053 383.227 591.613C381.773 590.173 380.08 591.413 379.493 590.84C377.973 589.308 381.56 588.493 380.947 586.84C380.333 585.16 378.667 585.72 376.667 586.84C374.667 587.947 376.387 590.893 375.053 590.893C373.72 590.893 372.507 595.387 371.333 595.107C370.16 594.827 363.387 586.44 363.387 585.773C363.387 585.107 366.08 581.255 367.893 583.053C369.693 584.868 370.053 586.827 373.387 584.387C376.72 581.947 375.173 575 377.893 577.16C379.133 578.147 381.787 579.227 384.653 579.921C384.653 566.493 370.333 552.827 368.333 550.84C367.64 550.147 367.12 548.627 366.573 546.787C365.533 543.28 364.453 538.627 362.16 536.333C358.667 532.84 349.84 530.667 349.84 532.493C349.84 534.333 344 537.827 342.827 537.827C341.667 537.827 342.16 536.173 340.507 536.173C338.827 536.173 334.507 536.493 333 535C331.493 533.507 323.173 534.173 321.493 535.827C319.827 537.493 312.667 537.227 312.667 535.227C312.667 533.227 315.107 531.227 313.56 529.667C312 528.107 312.667 527 312.667 523.44C312.667 519.893 307.773 517.893 307.773 520.333C307.773 522.773 304.667 526.813 302.227 526.813C299.773 526.813 299.893 522.893 298 521C296.107 519.107 295.107 516.107 287.56 517.44C280 518.773 279.107 525.44 278.227 529.227C277.333 533 272 537.44 264.893 536.333C257.773 535.227 257.773 530.56 257.773 527C257.773 523.44 252.16 520.227 252.16 520.227C250.387 521.507 252.333 526.053 251.613 526.773C250.893 527.493 248.28 525.893 246.333 527.227C244.387 528.56 246.893 533 245.613 535C244.333 537 242.667 539.44 244.227 546.72C245.773 554 252.227 558.667 252.72 559.893C253.227 561.107 250.28 567 248.507 567C246.72 567 247.587 562.868 246.72 562C245.867 561.133 243.72 561.827 243.173 561.28C242.613 560.72 243.56 553.893 242.44 553.893C241.333 553.893 240.173 556.613 238.56 555C236.947 553.387 237.227 554.333 233.773 554.72C230.333 555.107 232 557.667 230.333 557.667C228.667 557.667 225.387 557.227 225.773 560.613C226.16 564 227.893 563.773 229.947 564.053C232 564.333 229.973 568.641 232.133 568.641C234.307 568.641 234.107 566.333 235.947 565.921C237.773 565.507 236.667 562.8 237.533 562.947C238.387 563.08 246.027 566.667 244.56 567.387C243.08 568.107 242.44 571.641 242.44 572.36C242.44 573.08 239.8 572.893 238.613 573.333C237.413 573.773 239.28 575.467 239.28 575.893C239.28 576.308 239.173 580.308 240.28 580.308C241.387 580.308 243.893 578.387 244.56 576.773C245.227 575.16 246.053 575.107 247.053 576.107C248.053 577.107 246.773 582.387 247.72 583.333C248.667 584.28 249.333 588.493 248.947 589.56C248.56 590.613 246.227 592.227 245.053 592.227C243.893 592.227 242.2 595.413 243.387 596.613C244.587 597.8 245.2 597.133 245.72 596.613C246.253 596.08 251.28 596.16 253.333 596.16C255.387 596.16 254.16 597.72 255.56 597.947C256.947 598.16 257.747 596.641 258.773 595.613C259.8 594.588 258.053 585.773 259.28 585.56C262.507 584.975 263.227 591.613 263.227 592.053C263.227 592.493 270.493 592.107 271.333 592.387C272.16 592.667 273.587 593.36 272.947 594C272.307 594.641 265.56 594.107 263.893 594.44C262.227 594.773 260.467 599.201 259.827 599.827C259.2 600.467 250.667 600.613 249.773 600.387C248.893 600.16 248.227 597.507 247.107 597.773C246 598.053 246.253 600.08 245.893 600.44C245.533 600.8 244.613 600.44 244.613 601.107C244.613 603.573 250.507 602.72 251.893 603C253.28 603.28 253.053 604.44 253.613 604.44C254.173 604.44 255 602.493 256.333 602.827C257.667 603.16 260.72 609.72 262.28 611.28C263.84 612.827 269.84 615.053 267.333 616.28C264.84 617.493 262.893 614.227 261 613.827C259.107 613.44 258 616.227 256.773 616.227C255.56 616.227 254.893 613.773 252.947 612.613C251 611.44 252.667 608.44 250.333 607.16C248 605.893 246.387 605.28 246.387 607.107C246.387 608.947 244.667 609.947 244.333 611C244 612.053 246.84 612 248.613 612C250.387 612 252.28 616.56 252.947 617.667C253.613 618.773 252.173 620.44 250.613 620.44C249.053 620.44 246.84 617.773 245.893 617.773C244.947 617.773 240.84 614.827 240.84 610.773C240.84 606.72 238.84 600.28 236.947 601C235.053 601.72 231.173 606.893 232.893 612.107C234.613 617.333 245.107 625.107 246.333 625.493C247.56 625.893 252.64 626.868 253.72 625.773C254.8 624.693 257.88 623.413 259.08 624.12C260.293 624.84 259.667 626.627 259.253 627.787C258.827 628.96 256.413 627.547 254.04 629.507C251.667 631.453 253.453 633.88 253.96 635.333C254.453 636.787 251.707 639.16 252.84 639.96C253.973 640.747 256.227 639.027 256.88 639.667C258.293 641.08 255.987 642.547 254.333 644.373C252.853 646.027 252.413 648.12 253.293 648.12C256.04 648.12 258 651.16 257.547 652.333C257.08 653.507 256.08 656.04 257.547 656.04C259 656.04 266.373 652.213 267.413 650.547C268.453 648.88 268.827 644.16 269.587 643.413C271 642 275.693 639.56 278.68 635.827C281.573 632.201 283.173 627.787 283.173 627C283.173 625.387 281.773 625.387 281.773 624.613C281.773 623.827 283.107 619.613 284.56 619.947C286 620.28 286.333 629.333 285.947 631.773C285.56 634.227 291.56 640.387 292.773 640.387C294 640.387 294.16 638.787 295.36 638.787C296.547 638.787 297.853 640.36 298.373 640.12C299.733 639.535 301.587 637.387 302.267 635.12C303.187 632.107 302.707 628.667 303.707 628.308C305.453 627.693 305.52 620.267 304.56 619.921C303.6 619.56 303.04 618.773 303.373 618.08C304.373 616.013 308.56 616.813 309.4 616.4C310.227 615.975 316.773 609.56 317.707 608.853C318.64 608.147 323.827 609.467 324.747 608.547C325.68 607.613 327.933 601.08 329.4 601.453C330.853 601.827 331.333 604.213 331.787 604.667C332.253 605.12 333.973 603.373 334.813 603.921C335.64 604.453 336.027 612.547 334.48 613.333C332.933 614.12 332.04 611.187 331.187 610.975C330.333 610.773 328.44 612.733 328.44 613.52C328.44 614.308 331.267 615.453 331.493 616.213C331.733 616.96 328.48 623.12 326.373 623.333C324.267 623.547 324.52 621.413 324.52 620.853C324.52 620.293 325.933 619.333 326.227 618.773C326.52 618.213 325.52 616.4 324.893 616.4C324.267 616.4 320.387 622.535 318.893 624.333C317.387 626.133 318.893 627.827 319.053 628.72C319.227 629.613 317.013 629.853 316.44 630.413C315.88 630.987 317.84 631.56 318.467 631.56C319.107 631.56 322.027 629.693 322.56 628.947C323.08 628.201 325.08 627.96 325.293 627.96C328.707 627.96 327.453 630.373 329.96 630.373C332.453 630.373 332.44 634.733 332.92 635.213C333.4 635.693 336.333 638.255 337 638C337.667 637.747 338.08 635 339.373 635C343.627 635 349.707 625.627 352.12 624.293C354.547 622.96 355.96 619.88 355 617.827C354.04 615.787 343.92 606.641 343.613 606.333C343.307 606.027 343.44 604.72 343.893 604.72C344.333 604.72 343.827 594.44 344.667 593.613C345.507 592.773 354.72 593.44 356.107 592.72C357.507 592 358 587.893 359.773 588.333C361.56 588.773 359.773 595.16 360.667 595.387C361.56 595.613 363.693 597.36 363.507 597.56C363.307 597.747 362.947 600.227 363.667 601.44C364.387 602.667 364.893 603.493 362.947 604.827C361 606.16 364.44 608.053 362.72 612.667C361 617.28 363.947 614.28 366.667 616.387C369.387 618.493 369.053 617.667 369.053 617.227C369.053 616.773 371.227 617.053 371.72 617.053C372.227 617.053 371.053 616.44 370.613 615.28C370.173 614.107 368.84 614.053 368.507 612.16C368.173 610.28 371 604.227 372.44 604.227C373.893 604.227 374.893 606.053 376.107 606.72C377.333 607.387 379.133 605.975 379.947 606.773C380.747 607.588 380.827 612.333 379.893 612.773C378.947 613.227 378.773 619.28 379.107 620.947C379.44 622.613 382.28 623.613 382.667 624.507C383.053 625.387 387.107 625.173 387.507 624.773C387.893 624.387 386.84 623.667 386.507 623.333Z" stroke="black" stroke-width="1.5" stroke-miterlimit="10" stroke-linecap="round" stroke-linejoin="round"/>
<path class="NorthJeolla" fill ="white" d="M396.853 454.173V468.387C393.533 469.6 378.16 481.16 374.827 486.333C371.493 491.507 370.92 499.08 368.827 501.16C366.747 503.255 366.667 509.827 369.52 511.333C372.373 512.84 372.507 523.827 372.507 527.16C372.507 530.493 369.84 532.173 368 535.667C366.16 539.16 366.573 546.787 366.573 546.787C365.533 543.28 364.453 538.627 362.16 536.333C358.667 532.84 349.84 530.667 349.84 532.493C349.84 534.333 344 537.827 342.827 537.827C341.667 537.827 342.16 536.173 340.507 536.173C338.827 536.173 334.507 536.493 333 535C331.493 533.507 323.173 534.173 321.493 535.827C319.827 537.493 312.667 537.227 312.667 535.227C312.667 533.227 315.107 531.227 313.56 529.667C312 528.107 312.667 527 312.667 523.44C312.667 519.893 307.773 517.893 307.773 520.333C307.773 522.773 304.667 526.813 302.227 526.813C299.773 526.813 299.893 522.893 298 521C296.107 519.107 295.107 516.107 287.56 517.44C280 518.773 279.107 525.44 278.227 529.227C277.333 533 272 537.44 264.893 536.333C257.773 535.227 257.773 530.56 257.773 527C257.773 523.44 252.16 520.227 252.16 520.227C253.947 518.947 256.56 508.507 259.333 507.173C262.107 505.84 264.893 507.84 269.493 505.773C274.107 503.72 277.227 509.947 275.613 504.173C274 498.387 271.413 500.413 270.773 501.053C270.133 501.693 264.613 503.56 261.333 502.667C258.053 501.773 253.44 496.947 256.667 493.173C259.893 489.387 264.947 490.173 266.16 489.613C267.387 489.053 268.44 484.053 270.667 484.053C272.893 484.053 270.64 477.255 271.56 476.333C272.467 475.413 275.72 478.72 276.28 478.72C276.827 478.72 280.893 479 281.613 479.72C282.333 480.44 289.333 486.44 289.947 485.84C290.56 485.227 279.107 472.053 279.107 470.613C279.107 469.16 286.227 469.827 287.667 469.56C289.107 469.28 288.613 465.72 289.56 465.72C290.493 465.72 291.613 465.773 291.613 465.28C291.613 464.773 284.773 463.893 284 465.107C283.227 466.333 281.227 467.333 279.827 467.333C278.44 467.333 266.56 459.333 265.773 457.773C265 456.227 267.947 458.107 269.053 458.107C270.16 458.107 274.107 455.053 278.613 455.053C283.107 455.053 287.72 451.947 286.893 451.107C286.893 451.107 294 449.227 295.107 446.107C296.227 443 296.667 439.227 299.333 439.227C302 439.227 301.333 439.333 304.773 438.667C308.227 438 316.027 437.52 319.44 446.227C320.667 449.333 325.667 444.72 328.227 444.72C330.773 444.72 333.053 446.613 334.107 445.56C335.173 444.507 336.56 441.107 338.56 441.107C340.56 441.107 344.773 444.44 344.773 448C344.773 451.56 346.773 456.44 352 457.227C357.227 458 358.107 459.227 359 456.773C359.893 454.333 360.773 451.893 362.56 451.893C364.333 451.893 365.44 454.787 367.667 454.173C369.893 453.56 372.533 449.32 372.533 449.32C372.733 449.52 372.947 449.72 373.173 449.921C380.253 456.255 387.587 456.84 391 455.921C394.413 455 395.533 454.173 396.853 454.173Z" stroke="black" stroke-width="1.5" stroke-miterlimit="10" stroke-linecap="round" stroke-linejoin="round"/>
<path class="SouthChungCheong" fill="white" d="M372.533 449.32C372.533 449.32 369.893 453.56 367.667 454.174C365.44 454.787 364.333 451.894 362.56 451.894C360.773 451.894 359.893 454.334 359 456.774C358.107 459.227 357.227 458 352 457.227C346.773 456.44 344.773 451.56 344.773 448C344.773 444.44 340.56 441.107 338.56 441.107C336.56 441.107 335.173 444.507 334.107 445.56C333.053 446.614 330.773 444.72 328.227 444.72C325.667 444.72 320.667 449.334 319.44 446.227C316.027 437.519 308.227 438 304.773 438.667C301.333 439.334 302 439.227 299.333 439.227C296.667 439.227 296.227 443 295.107 446.107C294 449.227 286.893 451.107 286.893 451.107C286.053 450.28 281.827 451.774 280.227 452.387C278.613 453 272.773 447.56 272.507 446.667C272.227 445.774 272.52 439.054 264.56 439.054C263 439.054 259.747 439.026 258.84 438.107C257.92 437.2 263.773 432.56 266.773 431.827C269.773 431.107 263.107 427.334 263.107 427.107C263.107 426.894 263.08 423.92 263.387 423.614C263.693 423.307 266 420.947 266 419.894C266 418.827 260.28 418.667 260.28 417.614C260.28 416.56 267.387 414.494 267.387 412.774C267.387 411.054 260.893 409.667 260.44 407.494C260 405.334 269.973 399.692 269.44 399.16C268.92 398.64 265.947 398 265.053 398.334C264.16 398.667 262.56 401.494 261.613 401.947C260.667 402.387 260.467 397.359 260.053 396.947C259.64 396.534 259.333 397.107 259.333 396.107C259.333 395.107 263.56 394 263.333 392.72C263.107 391.44 260.107 391.054 259.16 386.387C258.627 383.707 262.067 384.292 263.213 383.4C264.067 382.734 261.053 381.654 261.053 378.667C261.053 377.827 261.667 377.587 262.08 375.507C262.507 373.412 259.173 373.16 259.173 372.254C259.173 371.334 258.587 366.079 256.507 366.079C254.413 366.079 255.747 373.587 254.827 375.412C253.92 377.254 250.747 379.507 249 379.507C247.253 379.507 249.507 368 248.333 366.84C247.16 365.667 241.84 371.412 241.84 372.494C241.84 373.587 246.08 374.547 246.08 377.587C246.08 379.079 244.747 379.079 244.747 379.079C244.747 379.079 245.493 383.079 243.173 384.174C240.827 385.254 242.293 377.454 241.413 376.587C240.547 375.707 240 370.494 237.173 370.494C234.333 370.494 234.12 371.959 233.493 372.587C232.88 373.214 228.587 372.174 228.587 370.92C228.587 369.667 233.92 370.587 232.587 367C231.253 363.412 228.587 363.412 227.493 366C226.413 368.587 226 364.334 226.747 362.92C227.493 361.507 226.333 360.494 226.747 359.16C227.173 357.827 228.827 354.587 229.333 355.079C229.84 355.587 230.373 359.787 230.747 360.174C231.12 360.547 232.16 362 232.667 361.507C233.173 361 232.213 349.626 232.827 349C233.453 348.374 235.88 348.374 236.413 348.92C236.96 349.454 236.787 351.959 237.333 352.494C237.88 353.04 241.147 350.132 240.413 347.079C240 345.334 241.493 346.334 241.92 345.92C242.333 345.507 240.333 341.16 242.747 340.254C245.173 339.334 244.253 343.799 244.72 344.28C245.2 344.746 245.947 346.227 245.333 347.28C244.72 348.334 243.107 354.28 243.44 355.387C243.773 356.494 245.947 359.107 246.613 359.107C247.28 359.107 245.84 356.626 245.84 355.746C245.84 354.88 247.227 352.44 247.707 352.92C248.187 353.4 251.213 352.746 251.213 352.174C251.213 351.587 251.227 349.64 252 348.88C252.773 348.107 254.627 348.827 255.12 348.334C255.627 347.84 253.96 344.412 253.04 344.412C252.12 344.412 248.787 342.334 248.787 341.507C248.787 340.667 250.04 339.587 250.04 339.079C250.04 338.587 247.373 338.079 247.373 337.507C247.373 336.92 249 335.12 250.08 335.12C251.173 335.12 251.707 336.587 252.213 336.587C252.707 336.587 256.08 335.707 257.413 336.626C258.747 337.547 255.453 340.746 255.707 341.374C255.96 342 258.973 341.227 259.547 341.787C260.107 342.359 260.96 345 259.413 346.959C257.88 348.92 257.12 353.334 257.96 353.707C258.787 354.079 262.453 352.746 262.453 351.92C262.453 351.079 263.12 343.292 264.453 342.587C265.787 341.88 266.88 347.827 268.293 348.12C269.707 348.412 267.333 334.334 263.293 330.292C259.253 326.254 267.333 332.547 269.253 335.507C271.173 338.454 274.787 342.746 276.16 343C277.547 343.254 279.053 339.667 280.667 339.28C282.28 338.894 283.493 343.387 284.387 344.28C285.28 345.16 286.72 341.44 287.667 341.44C288.613 341.44 290.44 341.334 291.28 342.614C292.107 343.894 290 345.334 290 346.107C290 346.894 290.827 346.667 292.16 347.507C293.493 348.334 293.413 351.026 293.827 351.44C294.253 351.867 293 360.72 295.107 361.72C297.227 362.72 296.227 359 296.773 358.44C297.333 357.894 299.227 356.774 299.227 356.227C299.227 355.667 297.773 353.774 298 352.614C298.227 351.44 301.947 350.614 303.44 349.107C303.947 348.6 304.107 348.214 304.067 347.894C310.907 348.906 315.493 346.28 317.44 344.334C319.387 342.387 326.44 344.107 328.773 344.107C331.107 344.107 335.227 348.44 336.333 348.44C336.333 348.44 340 351.92 340.507 353.587C341 355.254 340.413 356.587 341.413 357.587C342.413 358.587 351.253 366.174 351.253 367.667C351.253 369.16 350.92 370.254 347.587 370.254C344.253 370.254 339.413 374.079 338.827 376.84C338.253 379.587 337.453 383.12 338.507 384.174C339.547 385.214 342.413 383.254 343.333 384.174C344.253 385.079 342.627 389.454 343.333 390.174C344.04 390.88 344.373 396.707 344.92 397.254C345.147 397.48 346.667 399.107 348.733 401.014C348.733 401.014 340.333 403.667 339 408.667C337.667 413.667 333.667 414.84 333.667 417.507C333.667 420.174 334.507 424.334 338 425.507C341.493 426.667 337.827 434 338.827 435C339.84 436 343.333 435.334 343.333 432.494C343.333 429.667 343 427.494 344.333 426.174C345.667 424.84 347.347 427.787 348.733 429.16C350.12 430.547 351.333 432 353.493 432C355.667 432 358.92 429.667 358.92 429.667C360.827 429.667 368.253 432 368.827 434C369.4 435.934 366.28 443.12 372.533 449.32Z" stroke="black" stroke-width="1.5" stroke-miterlimit="10" stroke-linecap="round" stroke-linejoin="round"/>
<path class="Ulsan" fill="white" d="M546.227 519.44C543.56 519.44 546.36 509.227 544 509.227C540.893 509.227 539.107 519.227 539.107 532.774C539.107 533.307 538.907 533.707 538.573 534.014C538.573 534.014 532 532.334 529.107 532.334C526.227 532.334 525.507 530.72 524.56 529.774C523.613 528.84 525.667 526 524.56 524.894C522.56 522.894 517.333 524.334 515.107 522.107C512.893 519.894 512.56 517.894 510.107 516.667C507.667 515.44 504.667 514.227 503.56 513.107C502.44 512 503.56 508.334 504.667 507.227C505.773 506.107 505.667 503.894 505.667 503.894C505.641 503.867 505.613 503.84 505.573 503.814C507.453 501.692 511.36 497.44 512.773 497.44C514.667 497.44 515.16 494.614 516.667 493.107C518.173 491.614 527.56 492.667 529.56 494.667C531.56 496.667 533 501.04 534.44 501.04C535.893 501.04 537.56 497 540.333 497C542.36 497 546.48 498.427 548.52 499.2C548.32 501.574 548.707 503.267 549.56 504.107C551.333 505.894 548.893 519.44 546.227 519.44Z" stroke="black" stroke-width="1.5" stroke-miterlimit="10" stroke-linecap="round" stroke-linejoin="round"/>
<path class="NorthGyeongSang" fill="white" d="M558.893 458.107C557.588 468.254 553.52 484.707 551.56 489C549.693 493.094 548.733 496.574 548.52 499.2C546.48 498.427 542.36 497 540.333 497C537.56 497 535.893 501.04 534.44 501.04C533 501.04 531.56 496.667 529.56 494.667C527.56 492.667 518.173 491.614 516.667 493.107C515.16 494.614 514.667 497.44 512.773 497.44C511.36 497.44 507.453 501.692 505.573 503.814C503.773 502.347 495.08 502.56 493.667 502.56C492.227 502.56 492 505.44 490.893 506.56C489.773 507.667 488.107 506.334 485.227 507C482.333 507.667 481.893 509.667 480.08 509.667C478.28 509.667 474 507 469.773 507C465.56 507 462.907 506.56 462.907 503.894C462.907 501.227 456.893 498.107 456.893 498.107C458.333 496.667 457 494 459.56 491.44C462.107 488.894 465.773 492.56 468.44 492.56C471.107 492.56 474.44 491.44 474.44 488.334C474.44 485.227 466.667 480.774 472.667 480.774C478.667 480.774 478.333 477.56 479.333 476.56C480.333 475.56 480.333 470.44 479.333 469.44C478.333 468.44 479.333 465 479.333 462.334C479.333 459.667 473.373 454.374 471.493 456.267C469.613 458.147 465.56 458.227 460.227 458.227C454.893 458.227 456.667 462.774 456.667 465.307C456.667 467.854 456.08 469.587 454.893 468.387C453.693 467.187 445.56 462.107 444.44 468.387C443.333 474.667 454 475.227 453.107 479C452.227 482.774 448.667 480.107 445.56 483.227C442.44 486.334 445.453 489.334 444.453 490.334C443.453 491.334 442.893 490.334 441.773 491.44C440.667 492.56 442.667 495.894 443.773 497C444.893 498.107 444.44 501.227 443.773 501.894C443.667 502 443.427 501.987 443.093 501.867C441.267 501.334 436.507 498.334 433.333 498.334C429.56 498.334 424.227 502.107 424.227 498.334C424.227 494.56 428 493 428 490.56C428 488.107 422.773 483.107 420.667 481C418.56 478.894 412.667 477.667 407.773 477.667C402.893 477.667 396.853 468.387 396.853 468.387V454.174C398.16 454.174 398.507 451.746 400.16 451.746C401.84 451.746 401.921 448.412 402.413 447.92C402.921 447.412 406.507 444.174 406.507 442.746C406.507 441.334 409.413 435.254 411.08 434.84C412.747 434.412 412.08 426.746 410.507 426.746C408.921 426.746 406.293 426.627 405.588 427.334C404.88 428.04 405.04 429.214 403.921 428.079C402.787 426.96 401.588 423.587 400.255 423.079C398.921 422.587 397.947 424.412 396.853 424.412C395.747 424.412 392.933 425.334 392.507 423.92C392.08 422.494 393.627 420.454 394.253 419.827C394.88 419.214 395.493 418.254 395.493 415.827C395.493 413.412 395.04 402.987 395.667 402.347C396.293 401.72 398.333 400.84 398.333 400C398.333 399.16 396.667 393.412 391.587 391.254C386.507 389.079 386.253 389.746 386.92 388.254C387.587 386.746 392.547 387.454 393 387C393.453 386.547 395.84 383 397.333 383C398.827 383 400.16 385.667 401.921 385.667C403.667 385.667 404.413 385.079 404.413 383.827C404.413 382.587 402.255 380.334 400.16 379.587C398.08 378.84 396.16 376.587 398.08 375.746C400 374.92 405.08 372.587 407.667 373.079C410.255 373.587 411.747 376.84 413.747 376.334C415.747 375.827 416 373.667 414.16 371.827C412.333 370 410.333 366.667 413.173 363.827C416 361 418.707 362.294 419.413 361.587C420.12 360.88 420.827 359.412 422.507 359.92C424.16 360.412 425.173 363 426.921 363C428.667 363 429.413 361.667 428.827 359.667C428.255 357.667 433.667 356.746 435.255 357.507C436.827 358.254 439.255 364.412 441.08 364.412C442.921 364.412 448.493 362.746 450.16 361.079C451.84 359.412 449.333 353.587 451.08 350.84C452.827 348.079 460.507 342.587 461.173 341.079C461.84 339.587 463.255 335.92 466 335.079C468.747 334.254 469.573 336.587 471.493 336.04C472.308 336.692 473.347 337.24 474.827 337.587C480.747 339 482.213 336.88 483.173 335.92C484.12 334.96 483.08 327.412 488.413 326.494C493.747 325.587 492.507 332.587 494.507 333.587C496.507 334.587 500.16 332.254 503.08 333.827C506 335.412 505.747 336.494 508.08 336.494C510.413 336.494 514.747 332.174 517.84 332.174C520.921 332.174 521.84 336 525.921 336.412C530 336.84 528.213 333.214 530.747 330.667C533.293 328.12 538.36 325.094 541.053 325.094C541.347 327.454 541.787 330.787 544.333 331.667C548.413 333.079 542.827 362 549.84 367.254C556.826 372.494 539.493 385.079 543.84 389.412C548.173 393.746 548.12 395.214 546.16 397.16C544.213 399.12 547.747 407.412 542.747 415.16C540.96 417.947 541.653 421.174 541.333 424.334C540.773 430 540.547 435.454 542.413 437.746C545.333 441.334 545.588 448.174 540.667 450.667C538.227 451.907 539.853 454.094 543.347 454.587C546.893 455.107 552.08 453.587 557.493 448.174C558.627 447.04 559.947 449.867 558.893 458.107Z" stroke="black" stroke-width="1.5" stroke-miterlimit="10" stroke-linecap="round" stroke-linejoin="round"/>
<path class="Busan" fill="white" d="M538.573 534.013C536.96 535.534 532.026 535.094 530 538.773C527.56 543.226 529.893 550.666 524.893 555.666C519.893 560.666 518.56 555.226 515.666 563.666C512.773 572.106 513.773 569.666 512.56 569.666C511.333 569.666 510 564.893 507.666 564.893C505.333 564.893 506.106 570.56 503.44 570.56C500.773 570.56 501.826 564.826 503 563.666C504.173 562.506 501.333 559.333 500.226 560.44C499.106 561.56 497.56 564.893 496.226 566.226C494.893 567.56 495 562.666 493.44 562.666C491.893 562.666 492.333 564.893 487.666 564.333C485.641 564.094 483.293 564.053 481.173 563.986C481.173 563.986 476.826 560.493 477.84 557.506C478.826 554.493 484 555.666 486.826 554.84C489.666 554 489.333 551.333 490.826 551.333C492.333 551.333 493 549.506 496.333 548C499.666 546.493 502.826 548.173 504.333 544.84C505.84 541.506 502.026 540.333 503.094 537.666C504.16 535 507.173 537.666 509 537.666C510.826 537.666 508.921 533.254 510.666 531.506C512.413 529.746 516 532.84 518.16 532.84C520.333 532.84 524.56 529.773 524.56 529.773C525.506 530.72 526.226 532.333 529.106 532.333C532 532.333 538.573 534.013 538.573 534.013Z" stroke="black" stroke-width="1.5" stroke-miterlimit="10" stroke-linecap="round" stroke-linejoin="round"/>
<path class="SouthGyeongSang" fill="white" d="M524.56 529.774C524.56 529.774 520.333 532.84 518.16 532.84C516 532.84 512.413 529.746 510.666 531.507C508.921 533.254 510.826 537.667 509 537.667C507.173 537.667 504.16 535 503.093 537.667C502.026 540.334 505.84 541.507 504.333 544.84C502.826 548.174 499.666 546.494 496.333 548C493 549.507 492.333 551.334 490.826 551.334C489.333 551.334 489.666 554 486.826 554.84C484 555.667 478.826 554.494 477.84 557.507C476.826 560.494 481.173 563.987 481.173 563.987C478.413 563.88 476.04 563.707 475.226 562.894C473.773 561.44 471.106 558.227 468.44 558.227C465.773 558.227 466.72 551.614 465.56 550.44C464.386 549.28 462.666 549.334 462.666 551.774C462.666 554.227 463.613 558.28 464.893 559.56C466.173 560.827 463.893 564.56 462.44 564.56C461 564.56 455.893 563 453.56 563C451.226 563 448.666 567.894 446 567.894C443.333 567.894 443.106 569 443.106 570.56C443.106 572.107 446.16 573.28 450.56 568.894C454.946 564.507 454.666 573.894 453.666 574.894C452.666 575.894 446.493 578.534 448.56 583.56C449.333 585.44 451.44 588.667 453.333 588.667C455.226 588.667 456 585.56 457 585.56C458 585.56 465.921 586.667 466.746 585.827C467.588 585 464 581.92 464.746 580.412C465.493 578.92 469.746 582.92 472.333 575.746C474.921 568.587 474.666 570.079 475.254 570.667C475.84 571.254 475 579.587 476.413 580.079C477.84 580.587 476.293 586.627 477.588 587.92C478.88 589.214 482.506 587.667 479.254 592C476 596.334 476.493 597.587 477.413 598.494C478.333 599.412 476.666 601 475.173 600.412C473.666 599.827 473.173 597.746 471.413 598.746C469.666 599.746 469.746 604.174 470.588 605C471.413 605.827 470.921 607.507 469.333 607.507C467.746 607.507 469.333 611.667 466.254 611.667C463.173 611.667 462.626 608.547 463.921 607.254C465.213 605.96 462.826 602.079 461.84 602.079C460.826 602.079 461.506 604.254 460.746 605C460 605.746 457.413 604.746 459.333 602.174C461.254 599.587 459.921 598.174 461.173 597.667C462.413 597.16 465 595.827 465 593.827C465 591.827 462.254 591.254 461.666 592.92C461.08 594.587 459.666 595.079 457.746 595.079C455.84 595.079 456.506 597.16 455.666 596.334C454.826 595.507 454.666 592 453.493 592C452.333 592 448.12 592.214 447.588 592.746C447.04 593.294 447.453 595.627 448.08 596.254C448.706 596.88 449.373 599.454 448.666 600.174C447.96 600.88 440.413 601.079 438.746 600.494C437.08 599.92 439.921 596.412 440.506 596.412C441.08 596.412 437 593.92 438.506 593.412C440 592.92 444.04 593.627 444.826 592.84C445.626 592.04 443.493 589.507 442.588 589.507C441.666 589.507 441.254 591.254 440.16 589.334C439.08 587.412 439.626 585.88 440.413 585.079C441.213 584.294 440.08 580.412 439.226 579.56C438.36 578.692 437.053 583.44 436.226 585.72C435.386 588 433.72 583.614 430.667 582.774C427.613 581.947 426.746 586.134 426.16 586.72C425.588 587.307 419.84 586.507 419.226 587.107C418.613 587.72 418.827 588.387 418.333 588.387C417.84 588.387 409.227 579.72 409.773 577.494C410.333 575.28 412.386 572.16 410.226 570.827C408.053 569.494 404.773 571.72 404.28 572.227C403.773 572.72 405.56 574.947 403.333 576C401.106 577.054 398.667 570.894 397.72 570.894C396.773 570.894 400.186 577.026 393.84 580.107C391.84 581.079 388.093 580.76 384.653 579.92C384.653 566.494 370.333 552.827 368.333 550.84C367.64 550.147 367.12 548.627 366.573 546.787C366.573 546.787 366.16 539.16 368 535.667C369.84 532.174 372.506 530.494 372.506 527.16C372.506 523.827 372.373 512.84 369.52 511.334C366.667 509.827 366.746 503.254 368.826 501.16C370.92 499.079 371.493 491.507 374.826 486.334C378.16 481.16 393.533 469.6 396.853 468.387C396.853 468.387 402.893 477.667 407.773 477.667C412.667 477.667 418.56 478.894 420.667 481C422.773 483.107 428 488.107 428 490.56C428 493 424.226 494.56 424.226 498.334C424.226 502.107 429.56 498.334 433.333 498.334C436.506 498.334 441.266 501.334 443.093 501.867C443.426 501.987 443.666 502 443.773 501.894C444.44 501.227 444.893 498.107 443.773 497C442.666 495.894 440.666 492.56 441.773 491.44C442.893 490.334 443.453 491.334 444.453 490.334C445.453 489.334 442.44 486.334 445.56 483.227C448.666 480.107 452.226 482.774 453.106 479C454 475.227 443.333 474.667 444.44 468.387C445.56 462.107 453.693 467.187 454.893 468.387C456.08 469.587 456.666 467.854 456.666 465.307C456.666 462.774 454.893 458.227 460.226 458.227C465.56 458.227 469.613 458.147 471.493 456.267C473.373 454.374 479.333 459.667 479.333 462.334C479.333 465 478.333 468.44 479.333 469.44C480.333 470.44 480.333 475.56 479.333 476.56C478.333 477.56 478.666 480.774 472.666 480.774C466.666 480.774 474.44 485.227 474.44 488.334C474.44 491.44 471.106 492.56 468.44 492.56C465.773 492.56 462.106 488.894 459.56 491.44C457 494 458.333 496.667 456.893 498.107C456.893 498.107 462.906 501.227 462.906 503.894C462.906 506.56 465.56 507 469.773 507C474 507 478.28 509.667 480.08 509.667C481.893 509.667 482.333 507.667 485.226 507C488.106 506.334 489.773 507.667 490.893 506.56C492 505.44 492.226 502.56 493.666 502.56C495.08 502.56 503.773 502.347 505.573 503.814C505.613 503.84 505.641 503.867 505.666 503.894C505.666 503.894 505.773 506.107 504.666 507.227C503.56 508.334 502.44 512 503.56 513.107C504.666 514.227 507.666 515.44 510.106 516.667C512.56 517.894 512.893 519.894 515.106 522.107C517.333 524.334 522.56 522.894 524.56 524.894C525.666 526 523.613 528.84 524.56 529.774Z" stroke="black" stroke-width="1.5" stroke-miterlimit="10" stroke-linecap="round" stroke-linejoin="round"/>
<path class="Seoul" fill="white" d="M332.56 273.56C332.56 274.893 331.107 277.667 327.893 277.667C324.667 277.667 324.227 284.56 322.44 285.333C320.667 286.107 318.853 288.107 316.533 285.773C315.44 284.68 304.387 289.28 296.44 281.333C295 279.893 293.867 268.68 295.2 267.347C298.8 269.921 301.827 272.04 302.507 272.255C304.333 272.84 304.827 272.08 304.827 272.08C304.827 272.08 303.053 270.787 300.52 268.947C300.52 268.947 303.28 264.053 304.667 262.667C306.053 261.28 308.56 260.44 310.107 260.44C311.667 260.44 312.667 257.227 314.333 256.773C316 256.333 322.067 255.76 323.08 256.773C324.093 257.8 325.893 259.333 325.893 260.667C325.893 262 323.08 266.627 323.08 269.653C323.08 272.667 324.827 272.827 325.893 271.773C326.947 270.72 329.107 268.867 329.893 269.653C330.68 270.44 332.56 272.227 332.56 273.56Z" stroke="black" stroke-width="1.5" stroke-miterlimit="10" stroke-linecap="round" stroke-linejoin="round"/>
<path class="Gwangju" fill="white" d="M307.667 558.84C306.827 559.667 301.84 562.667 301.84 564.173C301.84 565.667 297.667 564.333 296.333 563C295 561.667 282.08 564.08 280.827 562.84C279.587 561.588 273.667 556.84 273.667 550.173C273.667 543.507 278.16 542.333 280.333 542.333C282.507 542.333 285.773 545.827 287.667 545.827C289.667 545.827 290.507 543.507 294.507 543.507C298.507 543.507 299.827 546.507 301.173 547.827C302.507 549.16 306.16 548.507 307.667 550C309.173 551.493 308.507 558 307.667 558.84Z" stroke="black" stroke-width="1.5" stroke-miterlimit="10" stroke-linecap="round" stroke-linejoin="round"/>
<path class="Daejeon" fill="white" d="M360.827 416.746C355.414 422.921 357 429.666 358.92 429.666C358.92 429.666 355.667 432 353.494 432C351.334 432 350.12 430.548 348.734 429.161C347.347 427.786 345.667 424.84 344.334 426.173C343 427.494 343.334 429.666 343.334 432.494C343.334 435.333 339.84 436 338.827 435C337.827 434 341.494 426.666 338 425.506C334.507 424.333 333.667 420.173 333.667 417.506C333.667 414.84 337.667 413.666 339 408.666C340.334 403.666 348.734 401.013 348.734 401.013C351.387 403.466 354.96 406.386 357.92 407.413C363.174 409.254 366.254 410.588 360.827 416.746Z" stroke="black" stroke-width="1.5" stroke-miterlimit="10" stroke-linecap="round" stroke-linejoin="round"/>
<path class="Daegu" fill="white" d="M479.333 476.56C478.333 477.56 478.667 480.773 472.667 480.773C466.667 480.773 474.44 485.227 474.44 488.333C474.44 491.44 471.107 492.56 468.44 492.56C465.773 492.56 462.107 488.893 459.56 491.44C457 494 458.333 496.667 456.893 498.107C455.44 499.56 455.107 497 452.44 499.667C449.773 502.333 449.333 503.893 446.667 503.893C445.547 503.893 444.227 502.96 443.093 501.867C443.427 501.987 443.667 502 443.773 501.893C444.44 501.227 444.893 498.107 443.773 497C442.667 495.893 440.667 492.56 441.773 491.44C442.893 490.333 443.453 491.333 444.453 490.333C445.453 489.333 442.44 486.333 445.56 483.227C448.667 480.107 452.227 482.773 453.107 479C454 475.227 443.333 474.667 444.44 468.387C445.56 462.107 453.693 467.187 454.893 468.387C456.08 469.588 456.667 467.853 456.667 465.308C456.667 462.773 454.893 458.227 460.227 458.227C465.56 458.227 469.613 458.147 471.493 456.267C473.373 454.373 479.333 459.667 479.333 462.333C479.333 465 478.333 468.44 479.333 469.44C480.333 470.44 480.333 475.56 479.333 476.56Z" stroke="black" stroke-width="1.5" stroke-miterlimit="10" stroke-linecap="round" stroke-linejoin="round"/>
<path class="Ulleung" fill="white" d="M675.667 277.167C675.667 277.167 675.417 280.417 677.167 282.167C678.917 283.916 679.917 287.416 681 286.333C682.083 285.249 683.333 284.167 684.667 284.167C686 284.167 687.667 283.667 687.667 282.833C687.667 282 687.751 274.751 686.667 273.667C685.583 272.583 684.833 276.333 683.5 276.333C682.167 276.333 679.5 276 677.333 276C675.167 276 675.667 277.167 675.667 277.167Z" stroke="black" stroke-width="1.5" stroke-miterlimit="10" stroke-linecap="round" stroke-linejoin="round"/>
<path class="Dokdo" fill="white" d="M746.167 290.167C746.167 290.167 744.732 287.972 746.167 286.537C747.601 285.101 750.333 286.871 750.333 288.352C750.333 289.833 747.931 287.34 747.931 288.085C747.931 288.833 748.333 290.167 746.167 290.167Z" stroke="black" stroke-width="1.5" stroke-miterlimit="10" stroke-linecap="round" stroke-linejoin="round"/>
<path class="Jeju" fill="white" d="M230.889 771C230.889 771 227.835 768.427 225.742 766.333C223.649 764.24 219.778 764.111 219.778 761C219.778 757.889 218.889 756.111 219.778 755.223C220.666 754.333 218.889 751.223 220.889 749.223C222.889 747.223 224.778 747.556 226.889 745.444C228.999 743.333 226.666 741.223 229.333 741.223C231.999 741.223 233.111 738.333 239.111 738.333C245.111 738.333 243.111 734.777 246.666 734.777C250.222 734.777 251.778 731.667 254.222 731.667C256.666 731.667 261.111 730.556 267.555 730.556C273.999 730.556 281.333 727.667 285.999 729.444C290.666 731.223 290.666 733 292.666 733C294.666 733 293.555 739.223 296.222 739.223C298.889 739.223 294.666 743.223 294.666 745.667C294.666 748.111 291.755 747.956 289.778 749.933C287.801 751.912 290.222 754.556 288.889 755.889C287.555 757.223 283.222 757.556 281.778 759C280.333 760.444 276.999 759.111 275.555 760.556C274.111 762 269.778 763.223 266.889 763.223C263.999 763.223 262.222 763.667 260.445 765.444C258.666 767.223 254.333 764 252.889 765.444C251.445 766.889 253.333 767.667 250.445 767.667C247.555 767.667 247.555 764.777 243.333 764.777C239.111 764.777 237.666 765.111 236.445 766.333C235.222 767.556 233.666 766.444 232.666 767.444C231.666 768.444 233.999 771 230.889 771Z" stroke="black" stroke-width="1.5" stroke-miterlimit="10" stroke-linecap="round" stroke-linejoin="round"/>
</g>
</g>
<defs>
<clipPath id="clip0_411_2">
<rect width="800" height="800" fill="white"/>
</clipPath>
</defs>
</svg>
