<svg width="534" height="625" viewBox="0 0 534 625" fill="none" xmlns="http://www.w3.org/2000/svg">
<path class = "Seoul" fill ="pink" d="M114.56 126.56C114.56 127.893 113.106 130.666 109.893 130.666C106.666 130.666 106.226 137.56 104.44 138.333C102.666 139.106 100.853 141.106 98.533 138.773C97.4397 137.68 86.3864 142.28 78.4397 134.333C76.9997 132.893 75.8664 121.68 77.1997 120.346C80.7997 122.921 83.8264 125.04 84.5064 125.254C86.333 125.84 86.8264 125.08 86.8264 125.08C86.8264 125.08 85.053 123.786 82.5197 121.946C82.5197 121.946 85.2797 117.053 86.6664 115.666C88.053 114.28 90.5597 113.44 92.1064 113.44C93.6664 113.44 94.6664 110.226 96.333 109.773C97.9997 109.333 104.066 108.76 105.08 109.773C106.093 110.8 107.893 112.333 107.893 113.666C107.893 115 105.08 119.626 105.08 122.653C105.08 125.666 106.826 125.826 107.893 124.773C108.946 123.72 111.106 121.866 111.893 122.653C112.68 123.44 114.56 125.226 114.56 126.56Z" stroke="black" stroke-width="1.5" stroke-miterlimit="10" stroke-linecap="round" stroke-linejoin="round"/>
<path class = "Incheon" fill ="pink" d="M51.28 113.573C53.4533 113.573 59.5333 121.92 60.2 123.413C60.8667 124.907 61.2 132.413 61.2 133.573C61.2 134.747 59.5333 135.253 59.5333 137.413C59.5333 139.573 64.6933 144.08 65.6133 145C66.5333 145.907 66.1867 147.56 65.3333 148.413C63.9733 149.773 65.3333 151.413 66.12 151.413C66.8933 151.413 66.5067 149.747 67.3867 149.747C70 149.747 70.8933 134.507 72 135C70.2267 135.773 69.32 130.833 67 128.5C65.9067 127.407 72.4467 122.947 64.5 115C63.06 113.56 49.9467 114.907 51.28 113.573ZM51.28 113.573C49.1067 113.573 49.24 118.373 48.28 119.333C47.32 120.293 45.28 118.827 44.0267 117.573C42.7733 116.333 42.5333 119.92 41.7733 119.92C41.0267 119.92 39.4533 117.493 38.6933 117.493C37.9467 117.493 33.7733 116.587 33.7733 114.16C33.7733 111.747 37.4533 113.747 38.2 112C38.9467 110.24 36.1067 107.027 35.5067 107.027C34.8933 107.027 34.28 110.187 33.1067 110.187C31.9467 110.187 30.56 108.693 29.1067 108.693C27.6667 108.693 26 107.467 26 105.573C26 103.693 26.9733 102.493 27.6133 101.853C28.2533 101.213 29.5867 99.9467 30.1733 100.52C30.7467 101.107 30.4533 104.64 30.4533 104.64C30.4533 104.64 32.8667 106.387 33.0533 106.187C33.2533 106 34.6133 104.907 34.6133 103.92C34.6133 102.907 33.8667 96.7467 33.8667 95.08C33.8667 93.4133 37.8667 91 38.9467 91C40.0267 91 46.5467 97.8933 47.72 99.08C48.4533 99.08 45.2 109.227 51.28 113.573Z" stroke="black" stroke-width="1.5" stroke-miterlimit="10" stroke-linecap="round" stroke-linejoin="round"/>
<path class = "Busan" fill ="pink" d="M320.573 387.013C318.96 388.534 314.026 388.094 312 391.773C309.56 396.226 311.893 403.666 306.893 408.666C301.893 413.666 300.56 408.226 297.666 416.666C294.773 425.106 295.773 422.666 294.56 422.666C293.333 422.666 292 417.893 289.666 417.893C287.333 417.893 288.106 423.56 285.44 423.56C282.773 423.56 283.826 417.826 285 416.666C286.173 415.506 283.333 412.333 282.226 413.44C281.106 414.56 279.56 417.893 278.226 419.226C276.893 420.56 277 415.666 275.44 415.666C273.893 415.666 274.333 417.893 269.666 417.333C267.641 417.094 265.293 417.053 263.173 416.986C263.173 416.986 258.826 413.493 259.84 410.506C260.826 407.493 266 408.666 268.826 407.84C271.666 407 271.333 404.333 272.826 404.333C274.333 404.333 275 402.506 278.333 401C281.666 399.493 284.826 401.173 286.333 397.84C287.84 394.506 284.026 393.333 285.094 390.666C286.16 388 289.173 390.666 291 390.666C292.826 390.666 290.921 386.254 292.666 384.506C294.413 382.746 298 385.84 300.16 385.84C302.333 385.84 306.56 382.773 306.56 382.773C307.506 383.72 308.226 385.333 311.106 385.333C314 385.333 320.573 387.013 320.573 387.013Z" stroke="black" stroke-width="1.5" stroke-miterlimit="10" stroke-linecap="round" stroke-linejoin="round"/>
<path class = "Gwangju" fill ="pink" d="M89.667 411.84C88.827 412.666 83.8403 415.666 83.8403 417.173C83.8403 418.666 79.667 417.333 78.3337 416C77.0003 414.666 64.0803 417.08 62.827 415.84C61.587 414.588 55.667 409.84 55.667 403.173C55.667 396.506 60.1603 395.333 62.3337 395.333C64.507 395.333 67.7737 398.826 69.667 398.826C71.667 398.826 72.507 396.506 76.507 396.506C80.507 396.506 81.827 399.506 83.1737 400.826C84.507 402.16 88.1603 401.506 89.667 403C91.1737 404.493 90.507 411 89.667 411.84Z" stroke="black" stroke-width="1.5" stroke-miterlimit="10" stroke-linecap="round" stroke-linejoin="round"/>
<path class = "Daejeon" fill ="pink" d="M142.827 269.746C137.414 275.921 139 282.666 140.92 282.666C140.92 282.666 137.667 284.999 135.494 284.999C133.334 284.999 132.12 283.547 130.734 282.161C129.347 280.786 127.667 277.839 126.334 279.173C125 280.494 125.334 282.666 125.334 285.494C125.334 288.333 121.84 288.999 120.827 287.999C119.827 286.999 123.494 279.666 120 278.506C116.507 277.333 115.667 273.173 115.667 270.506C115.667 267.839 119.667 266.666 121 261.666C122.334 256.666 130.734 254.013 130.734 254.013C133.387 256.466 136.96 259.386 139.92 260.413C145.174 262.254 148.254 263.587 142.827 269.746Z" stroke="black" stroke-width="1.5" stroke-miterlimit="10" stroke-linecap="round" stroke-linejoin="round"/>
<path class = "Daegu" fill ="pink" d="M261.334 329.56C260.334 330.56 260.667 333.773 254.667 333.773C248.667 333.773 256.44 338.226 256.44 341.333C256.44 344.44 253.107 345.56 250.44 345.56C247.774 345.56 244.107 341.893 241.56 344.44C239 347 240.334 349.666 238.894 351.106C237.44 352.56 237.107 350 234.44 352.666C231.774 355.333 231.334 356.893 228.667 356.893C227.547 356.893 226.227 355.96 225.094 354.866C225.427 354.986 225.667 355 225.774 354.893C226.44 354.226 226.894 351.106 225.774 350C224.667 348.893 222.667 345.56 223.774 344.44C224.894 343.333 225.454 344.333 226.454 343.333C227.454 342.333 224.44 339.333 227.56 336.226C230.667 333.106 234.227 335.773 235.107 332C236 328.226 225.334 327.666 226.44 321.386C227.56 315.106 235.694 320.186 236.894 321.386C238.08 322.588 238.667 320.853 238.667 318.308C238.667 315.773 236.894 311.226 242.227 311.226C247.56 311.226 251.614 311.146 253.494 309.266C255.374 307.373 261.334 312.666 261.334 315.333C261.334 318 260.334 321.44 261.334 322.44C262.334 323.44 262.334 328.56 261.334 329.56Z" stroke="black" stroke-width="1.5" stroke-miterlimit="10" stroke-linecap="round" stroke-linejoin="round"/>
<path class = "Ulsan" fill ="pink" d="M328.227 372.44C325.56 372.44 328.36 362.227 326 362.227C322.893 362.227 321.107 372.227 321.107 385.773C321.107 386.307 320.907 386.707 320.573 387.013C320.573 387.013 314 385.333 311.107 385.333C308.227 385.333 307.507 383.72 306.56 382.773C305.613 381.84 307.667 379 306.56 377.893C304.56 375.893 299.333 377.333 297.107 375.107C294.893 372.893 294.56 370.893 292.107 369.667C289.667 368.44 286.667 367.227 285.56 366.107C284.44 365 285.56 361.333 286.667 360.227C287.773 359.107 287.667 356.893 287.667 356.893C287.641 356.867 287.613 356.84 287.573 356.813C289.453 354.692 293.36 350.44 294.773 350.44C296.667 350.44 297.16 347.613 298.667 346.107C300.173 344.613 309.56 345.667 311.56 347.667C313.56 349.667 315 354.04 316.44 354.04C317.893 354.04 319.56 350 322.333 350C324.36 350 328.48 351.427 330.52 352.2C330.32 354.573 330.707 356.267 331.56 357.107C333.333 358.893 330.893 372.44 328.227 372.44Z" stroke="black" stroke-width="1.5" stroke-miterlimit="10" stroke-linecap="round" stroke-linejoin="round"/>
<path class = "Jeju" fill ="pink" d="M12.8887 624C12.8887 624 9.83541 621.427 7.74207 619.333C5.64874 617.24 1.77807 617.111 1.77807 614C1.77807 610.889 0.888738 609.111 1.77807 608.223C2.66607 607.333 0.888739 604.223 2.88874 602.223C4.88874 600.223 6.77807 600.556 8.88874 598.444C10.9994 596.333 8.66607 594.223 11.3327 594.223C13.9994 594.223 15.1114 591.333 21.1114 591.333C27.1114 591.333 25.1114 587.777 28.6661 587.777C32.2221 587.777 33.7781 584.667 36.2221 584.667C38.6661 584.667 43.1114 583.556 49.5554 583.556C55.9994 583.556 63.3327 580.667 67.9994 582.444C72.6661 584.223 72.6661 586 74.6661 586C76.6661 586 75.5554 592.223 78.2221 592.223C80.8887 592.223 76.6661 596.223 76.6661 598.667C76.6661 601.111 73.7554 600.956 71.7781 602.933C69.8007 604.912 72.2221 607.556 70.8887 608.889C69.5554 610.223 65.2221 610.556 63.7781 612C62.3327 613.444 58.9994 612.111 57.5554 613.556C56.1114 615 51.7781 616.223 48.8887 616.223C45.9994 616.223 44.2221 616.667 42.4447 618.444C40.6661 620.223 36.3327 617 34.8887 618.444C33.4447 619.889 35.3327 620.667 32.4447 620.667C29.5554 620.667 29.5554 617.777 25.3327 617.777C21.1114 617.777 19.6661 618.111 18.4447 619.333C17.2221 620.556 15.6661 619.444 14.6661 620.444C13.6661 621.444 15.9994 624 12.8887 624Z" stroke="black" stroke-width="1.5" stroke-miterlimit="10" stroke-linecap="round" stroke-linejoin="round"/>
<path class = "Ulleung" fill ="black" d="M457.667 130.167C457.667 130.167 457.418 133.417 459.167 135.167C460.918 136.916 461.918 140.416 463 139.333C464.083 138.249 465.334 137.167 466.667 137.167C468 137.167 469.667 136.667 469.667 135.833C469.667 135 469.751 127.751 468.667 126.667C467.583 125.583 466.834 129.333 465.5 129.333C464.167 129.333 461.5 129 459.334 129C457.167 129 457.667 130.167 457.667 130.167Z" stroke="black" stroke-width="1.5" stroke-miterlimit="10" stroke-linecap="round" stroke-linejoin="round"/>
<path class = "Dokdo" fill ="black" d="M528.167 143.167C528.167 143.167 526.732 140.972 528.167 139.537C529.602 138.101 532.334 139.871 532.334 141.352C532.334 142.833 529.931 140.34 529.931 141.085C529.931 141.833 530.334 143.167 528.167 143.167Z" stroke="black" stroke-width="1.5" stroke-miterlimit="10" stroke-linecap="round" stroke-linejoin="round"/>
<path class = "NorthJeolla" fill ="black" d="M178.853 307.173V321.387C175.533 322.6 160.16 334.16 156.827 339.333C153.493 344.507 152.92 352.08 150.827 354.16C148.747 356.255 148.667 362.827 151.52 364.333C154.373 365.84 154.507 376.827 154.507 380.16C154.507 383.493 151.84 385.173 150 388.667C148.16 392.16 148.573 399.787 148.573 399.787C147.533 396.28 146.453 391.627 144.16 389.333C140.667 385.84 131.84 383.667 131.84 385.493C131.84 387.333 126 390.827 124.827 390.827C123.667 390.827 124.16 389.173 122.507 389.173C120.827 389.173 116.507 389.493 115 388C113.493 386.507 105.173 387.173 103.493 388.827C101.827 390.493 94.6668 390.227 94.6668 388.227C94.6668 386.227 97.1068 384.227 95.5602 382.667C94.0002 381.107 94.6668 380 94.6668 376.44C94.6668 372.893 89.7735 370.893 89.7735 373.333C89.7735 375.773 86.6668 379.813 84.2268 379.813C81.7735 379.813 81.8935 375.893 80.0002 374C78.1068 372.107 77.1068 369.107 69.5602 370.44C62.0002 371.773 61.1068 378.44 60.2268 382.227C59.3335 386 54.0002 390.44 46.8935 389.333C39.7735 388.227 39.7735 383.56 39.7735 380C39.7735 376.44 34.1602 373.227 34.1602 373.227C35.9468 371.947 38.5602 361.507 41.3335 360.173C44.1068 358.84 46.8935 360.84 51.4935 358.773C56.1068 356.72 59.2268 362.947 57.6135 357.173C56.0002 351.387 53.4135 353.413 52.7735 354.053C52.1335 354.693 46.6135 356.56 43.3335 355.667C40.0535 354.773 35.4402 349.947 38.6668 346.173C41.8935 342.387 46.9468 343.173 48.1602 342.613C49.3868 342.053 50.4402 337.053 52.6668 337.053C54.8935 337.053 52.6402 330.255 53.5602 329.333C54.4668 328.413 57.7202 331.72 58.2802 331.72C58.8268 331.72 62.8935 332 63.6135 332.72C64.3335 333.44 71.3335 339.44 71.9468 338.84C72.5602 338.227 61.1068 325.053 61.1068 323.613C61.1068 322.16 68.2268 322.827 69.6668 322.56C71.1068 322.28 70.6135 318.72 71.5602 318.72C72.4935 318.72 73.6135 318.773 73.6135 318.28C73.6135 317.773 66.7735 316.893 66.0002 318.107C65.2268 319.333 63.2268 320.333 61.8268 320.333C60.4402 320.333 48.5602 312.333 47.7735 310.773C47.0002 309.227 49.9468 311.107 51.0535 311.107C52.1602 311.107 56.1068 308.053 60.6135 308.053C65.1068 308.053 69.7202 304.947 68.8935 304.107C68.8935 304.107 76.0002 302.227 77.1068 299.107C78.2268 296 78.6668 292.227 81.3335 292.227C84.0002 292.227 83.3335 292.333 86.7735 291.667C90.2268 291 98.0268 290.52 101.44 299.227C102.667 302.333 107.667 297.72 110.227 297.72C112.773 297.72 115.053 299.613 116.107 298.56C117.173 297.507 118.56 294.107 120.56 294.107C122.56 294.107 126.773 297.44 126.773 301C126.773 304.56 128.773 309.44 134 310.227C139.227 311 140.107 312.227 141 309.773C141.893 307.333 142.773 304.893 144.56 304.893C146.333 304.893 147.44 307.787 149.667 307.173C151.893 306.56 154.533 302.32 154.533 302.32C154.733 302.52 154.947 302.72 155.173 302.921C162.253 309.255 169.587 309.84 173 308.921C176.413 308 177.533 307.173 178.853 307.173Z" stroke="black" stroke-width="1.5" stroke-miterlimit="10" stroke-linecap="round" stroke-linejoin="round"/>
<path class = "SouthJeolla" fill ="black" d="M89.6669 411.84C88.8269 412.666 83.8403 415.666 83.8403 417.173C83.8403 418.666 79.6669 417.333 78.3336 416C77.0003 414.666 64.0803 417.08 62.8269 415.84C61.5869 414.588 55.6669 409.84 55.6669 403.173C55.6669 396.506 60.1603 395.333 62.3336 395.333C64.5069 395.333 67.7736 398.826 69.6669 398.826C71.6669 398.826 72.5069 396.506 76.5069 396.506C80.5069 396.506 81.8269 399.506 83.1736 400.826C84.5069 402.16 88.1602 401.506 89.6669 403C91.1736 404.493 90.5069 411 89.6669 411.84ZM168.507 476.333C168.16 476 169 474.386 167.44 473.56C165.894 472.72 167.947 467.053 166.174 466.106C164.387 465.173 166.28 457.226 165.107 456.84C162.68 456.026 162.507 453.44 162.507 452.226C162.507 451 166.667 446.053 165.227 444.613C163.774 443.173 162.08 444.413 161.494 443.84C159.974 442.308 163.56 441.493 162.947 439.84C162.334 438.16 160.667 438.72 158.667 439.84C156.667 440.946 158.387 443.893 157.054 443.893C155.72 443.893 154.507 448.386 153.334 448.106C152.16 447.826 145.387 439.44 145.387 438.773C145.387 438.106 148.08 434.254 149.894 436.053C151.694 437.868 152.054 439.826 155.387 437.386C158.72 434.946 157.174 428 159.894 430.16C161.134 431.146 163.787 432.226 166.654 432.921C166.654 419.493 152.334 405.826 150.334 403.84C149.64 403.146 149.12 401.626 148.574 399.786C147.534 396.28 146.454 391.626 144.16 389.333C140.667 385.84 131.84 383.666 131.84 385.493C131.84 387.333 126 390.826 124.827 390.826C123.667 390.826 124.16 389.173 122.507 389.173C120.827 389.173 116.507 389.493 115 388C113.494 386.506 105.174 387.173 103.494 388.826C101.827 390.493 94.6669 390.226 94.6669 388.226C94.6669 386.226 97.1069 384.226 95.5602 382.666C94.0002 381.106 94.6669 380 94.6669 376.44C94.6669 372.893 89.7736 370.893 89.7736 373.333C89.7736 375.773 86.6669 379.813 84.2269 379.813C81.7736 379.813 81.8936 375.893 80.0003 374C78.1069 372.106 77.1069 369.106 69.5603 370.44C62.0003 371.773 61.1069 378.44 60.2269 382.226C59.3336 386 54.0002 390.44 46.8936 389.333C39.7736 388.226 39.7736 383.56 39.7736 380C39.7736 376.44 34.1603 373.226 34.1603 373.226C32.3869 374.506 34.3336 379.053 33.6136 379.773C32.8936 380.493 30.2803 378.893 28.3336 380.226C26.3869 381.56 28.8936 386 27.6136 388C26.3336 390 24.6669 392.44 26.2269 399.72C27.7736 407 34.2269 411.666 34.7203 412.893C35.2269 414.106 32.2803 420 30.5069 420C28.7203 420 29.5869 415.868 28.7203 415C27.8669 414.133 25.7203 414.826 25.1736 414.28C24.6136 413.72 25.5603 406.893 24.4403 406.893C23.3336 406.893 22.1736 409.613 20.5603 408C18.9469 406.386 19.2269 407.333 15.7736 407.72C12.3336 408.106 14.0003 410.666 12.3336 410.666C10.6669 410.666 7.38692 410.226 7.77359 413.613C8.16026 417 9.89359 416.773 11.9469 417.053C14.0003 417.333 11.9736 421.641 14.1336 421.641C16.3069 421.641 16.1069 419.333 17.9469 418.921C19.7736 418.506 18.6669 415.8 19.5336 415.946C20.3869 416.08 28.0269 419.666 26.5603 420.386C25.0803 421.106 24.4403 424.641 24.4403 425.36C24.4403 426.08 21.8003 425.893 20.6136 426.333C19.4136 426.773 21.2803 428.466 21.2803 428.893C21.2803 429.308 21.1736 433.308 22.2803 433.308C23.3869 433.308 25.8936 431.386 26.5603 429.773C27.2269 428.16 28.0536 428.106 29.0536 429.106C30.0536 430.106 28.7736 435.386 29.7203 436.333C30.6669 437.28 31.3336 441.493 30.9469 442.56C30.5603 443.613 28.2269 445.226 27.0536 445.226C25.8936 445.226 24.2003 448.413 25.3869 449.613C26.5869 450.8 27.2003 450.133 27.7203 449.613C28.2536 449.08 33.2803 449.16 35.3336 449.16C37.3869 449.16 36.1603 450.72 37.5603 450.946C38.9469 451.16 39.7469 449.641 40.7736 448.613C41.8003 447.588 40.0536 438.773 41.2803 438.56C44.5069 437.974 45.2269 444.613 45.2269 445.053C45.2269 445.493 52.4936 445.106 53.3336 445.386C54.1603 445.666 55.5869 446.36 54.9469 447C54.3069 447.641 47.5602 447.106 45.8936 447.44C44.2269 447.773 42.4669 452.201 41.8269 452.826C41.2003 453.466 32.6669 453.613 31.7736 453.386C30.8936 453.16 30.2269 450.506 29.1069 450.773C28.0003 451.053 28.2536 453.08 27.8936 453.44C27.5336 453.8 26.6136 453.44 26.6136 454.106C26.6136 456.573 32.5069 455.72 33.8936 456C35.2803 456.28 35.0536 457.44 35.6136 457.44C36.1736 457.44 37.0003 455.493 38.3336 455.826C39.6669 456.16 42.7203 462.72 44.2803 464.28C45.8403 465.826 51.8403 468.053 49.3336 469.28C46.8403 470.493 44.8936 467.226 43.0003 466.826C41.1069 466.44 40.0003 469.226 38.7736 469.226C37.5603 469.226 36.8936 466.773 34.9469 465.613C33.0003 464.44 34.6669 461.44 32.3336 460.16C30.0003 458.893 28.3869 458.28 28.3869 460.106C28.3869 461.946 26.6669 462.946 26.3336 464C26.0003 465.053 28.8403 465 30.6136 465C32.3869 465 34.2803 469.56 34.9469 470.666C35.6136 471.773 34.1736 473.44 32.6136 473.44C31.0536 473.44 28.8403 470.773 27.8936 470.773C26.9469 470.773 22.8403 467.826 22.8403 463.773C22.8403 459.72 20.8403 453.28 18.9469 454C17.0536 454.72 13.1736 459.893 14.8936 465.106C16.6136 470.333 27.1069 478.106 28.3336 478.493C29.5603 478.893 34.6403 479.868 35.7203 478.773C36.8003 477.693 39.8803 476.413 41.0803 477.12C42.2936 477.84 41.6669 479.626 41.2536 480.786C40.8269 481.96 38.4136 480.546 36.0403 482.506C33.6669 484.453 35.4536 486.88 35.9603 488.333C36.4536 489.786 33.7069 492.16 34.8403 492.96C35.9736 493.746 38.2269 492.026 38.8803 492.666C40.2936 494.08 37.9869 495.546 36.3336 497.373C34.8536 499.026 34.4136 501.12 35.2936 501.12C38.0403 501.12 40.0003 504.16 39.5469 505.333C39.0803 506.506 38.0803 509.04 39.5469 509.04C41.0003 509.04 48.3736 505.213 49.4136 503.546C50.4536 501.88 50.8269 497.16 51.5869 496.413C53.0003 495 57.6936 492.56 60.6803 488.826C63.5736 485.201 65.1736 480.786 65.1736 480C65.1736 478.386 63.7736 478.386 63.7736 477.613C63.7736 476.826 65.1069 472.613 66.5603 472.946C68.0003 473.28 68.3336 482.333 67.9469 484.773C67.5602 487.226 73.5603 493.386 74.7736 493.386C76.0003 493.386 76.1603 491.786 77.3603 491.786C78.5469 491.786 79.8536 493.36 80.3736 493.12C81.7336 492.534 83.5869 490.386 84.2669 488.12C85.1869 485.106 84.7069 481.666 85.7069 481.308C87.4536 480.693 87.5203 473.266 86.5603 472.921C85.6003 472.56 85.0403 471.773 85.3736 471.08C86.3736 469.013 90.5602 469.813 91.4002 469.4C92.2269 468.974 98.7736 462.56 99.7069 461.853C100.64 461.146 105.827 462.466 106.747 461.546C107.68 460.613 109.934 454.08 111.4 454.453C112.854 454.826 113.334 457.213 113.787 457.666C114.254 458.12 115.974 456.373 116.814 456.921C117.64 457.453 118.027 465.546 116.48 466.333C114.934 467.12 114.04 464.186 113.187 463.974C112.334 463.773 110.44 465.733 110.44 466.52C110.44 467.308 113.267 468.453 113.494 469.213C113.734 469.96 110.48 476.12 108.374 476.333C106.267 476.546 106.52 474.413 106.52 473.853C106.52 473.293 107.934 472.333 108.227 471.773C108.52 471.213 107.52 469.4 106.894 469.4C106.267 469.4 102.387 475.534 100.894 477.333C99.3869 479.133 100.894 480.826 101.054 481.72C101.227 482.613 99.0136 482.853 98.4403 483.413C97.8803 483.986 99.8402 484.56 100.467 484.56C101.107 484.56 104.027 482.693 104.56 481.946C105.08 481.201 107.08 480.96 107.294 480.96C110.707 480.96 109.454 483.373 111.96 483.373C114.454 483.373 114.44 487.733 114.92 488.213C115.4 488.693 118.334 491.254 119 491C119.667 490.746 120.08 488 121.374 488C125.627 488 131.707 478.626 134.12 477.293C136.547 475.96 137.96 472.88 137 470.826C136.04 468.786 125.92 459.641 125.614 459.333C125.307 459.026 125.44 457.72 125.894 457.72C126.334 457.72 125.827 447.44 126.667 446.613C127.507 445.773 136.72 446.44 138.107 445.72C139.507 445 140 440.893 141.774 441.333C143.56 441.773 141.774 448.16 142.667 448.386C143.56 448.613 145.694 450.36 145.507 450.56C145.307 450.746 144.947 453.226 145.667 454.44C146.387 455.666 146.894 456.493 144.947 457.826C143 459.16 146.44 461.053 144.72 465.666C143 470.28 145.947 467.28 148.667 469.386C151.387 471.493 151.054 470.666 151.054 470.226C151.054 469.773 153.227 470.053 153.72 470.053C154.227 470.053 153.054 469.44 152.614 468.28C152.174 467.106 150.84 467.053 150.507 465.16C150.174 463.28 153 457.226 154.44 457.226C155.894 457.226 156.894 459.053 158.107 459.72C159.334 460.386 161.134 458.974 161.947 459.773C162.747 460.588 162.827 465.333 161.894 465.773C160.947 466.226 160.774 472.28 161.107 473.946C161.44 475.613 164.28 476.613 164.667 477.506C165.054 478.386 169.107 478.173 169.507 477.773C169.894 477.386 168.84 476.666 168.507 476.333Z" stroke="black" stroke-width="1.5" stroke-miterlimit="10" stroke-linecap="round" stroke-linejoin="round"/>
<path class = "NorthChungCheong" fill ="black" d="M253.494 189.041C251.574 189.587 250.746 187.254 248 188.079C245.253 188.921 243.84 192.587 243.174 194.079C242.507 195.587 234.827 201.079 233.079 203.841C231.334 206.587 233.84 212.413 232.16 214.079C230.494 215.746 224.92 217.413 223.079 217.413C221.254 217.413 218.827 211.254 217.254 210.507C215.667 209.746 210.254 210.667 210.827 212.667C211.412 214.667 210.667 216.001 208.92 216.001C207.174 216.001 206.16 213.413 204.507 212.921C202.827 212.413 202.12 213.881 201.412 214.587C200.707 215.293 198 214.001 195.173 216.827C192.333 219.667 194.334 223.001 196.16 224.827C198 226.667 197.746 228.827 195.746 229.334C193.746 229.841 192.254 226.587 189.667 226.079C187.079 225.587 182 227.921 180.079 228.746C178.16 229.587 180.079 231.841 182.16 232.587C184.254 233.334 186.412 235.587 186.412 236.827C186.412 238.079 185.667 238.667 183.92 238.667C182.16 238.667 180.827 236.001 179.334 236.001C177.84 236.001 175.454 239.547 175 240.001C174.547 240.454 169.587 239.746 168.92 241.254C168.254 242.746 168.507 242.079 173.587 244.254C178.667 246.413 180.334 252.161 180.334 253.001C180.334 253.841 178.294 254.721 177.667 255.346C177.04 255.987 177.494 266.413 177.494 268.827C177.494 271.254 176.88 272.214 176.254 272.827C175.627 273.454 174.08 275.494 174.507 276.921C174.933 278.334 177.747 277.413 178.854 277.413C179.947 277.413 180.92 275.587 182.254 276.079C183.587 276.587 184.787 279.959 185.92 281.079C187.04 282.214 186.88 281.041 187.587 280.334C188.294 279.626 190.92 279.746 192.507 279.746C194.079 279.746 194.746 287.413 193.079 287.841C191.412 288.254 188.507 294.334 188.507 295.746C188.507 297.174 184.92 300.413 184.412 300.921C183.92 301.413 183.84 304.746 182.16 304.746C180.507 304.746 180.16 307.174 178.854 307.174C177.534 307.174 176.414 308.001 173 308.921C169.587 309.841 162.254 309.254 155.174 302.921C154.947 302.721 154.733 302.519 154.533 302.321C148.28 296.121 151.4 288.934 150.827 287.001C150.254 285.001 142.827 282.667 140.92 282.667C139 282.667 137.414 275.921 142.827 269.746C148.254 263.587 145.174 262.254 139.92 260.413C136.96 259.387 133.387 256.466 130.734 254.013C128.667 252.107 127.147 250.481 126.92 250.254C126.373 249.707 126.04 243.881 125.333 243.174C124.627 242.454 126.253 238.079 125.333 237.174C124.413 236.254 121.547 238.214 120.507 237.174C119.454 236.121 120.253 232.587 120.827 229.841C121.413 227.079 126.253 223.254 129.587 223.254C132.92 223.254 133.253 222.161 133.253 220.667C133.253 219.174 124.414 211.587 123.414 210.587C122.414 209.587 123 208.254 122.507 206.587C122 204.921 118.333 201.441 118.333 201.441C119.44 201.441 127.44 200.667 128.667 198.441C129.893 196.227 132.107 189.561 137.107 189.561C142.107 189.561 145.333 188.227 145.333 188.227C148.667 187.441 154 181.334 154 180.667C154 180.001 157.227 177.334 157.227 176.227C157.227 175.107 162.227 172.227 162.227 170.894C162.227 169.561 164.107 167.441 164.107 167.441C164.107 167.441 166 175.494 171 175.494C176 175.494 183.84 176.441 183.84 171.466C183.84 166.507 186.667 163.174 188.507 163.174C190.333 163.174 196 172.334 198.16 172.334C200.334 172.334 201.174 167.667 203.334 167.667C205.494 167.667 209.667 170.667 210.827 166.507C212 162.334 212.333 170.401 222 169.374C231.667 168.334 214.92 174.746 219.667 179.494C224.412 184.254 227.16 174.667 232 179.494C236.84 184.334 241.333 179.174 246.667 182.001C250.667 184.121 251.054 187.094 253.494 189.041Z" stroke="black" stroke-width="1.5" stroke-miterlimit="10" stroke-linecap="round" stroke-linejoin="round"/>
<path class = "SouthChungCheong" fill ="black" d="M154.533 302.32C154.533 302.32 151.893 306.56 149.667 307.174C147.44 307.787 146.333 304.894 144.56 304.894C142.773 304.894 141.893 307.334 141 309.774C140.107 312.227 139.227 311 134 310.227C128.773 309.44 126.773 304.56 126.773 301C126.773 297.44 122.56 294.107 120.56 294.107C118.56 294.107 117.173 297.507 116.107 298.56C115.053 299.614 112.773 297.72 110.227 297.72C107.667 297.72 102.667 302.334 101.44 299.227C98.0265 290.519 90.2265 291 86.7732 291.667C83.3332 292.334 83.9999 292.227 81.3332 292.227C78.6665 292.227 78.2265 296 77.1065 299.107C75.9999 302.227 68.8932 304.107 68.8932 304.107C68.0532 303.28 63.8265 304.774 62.2265 305.387C60.6132 306 54.7732 300.56 54.5065 299.667C54.2265 298.774 54.5199 292.054 46.5599 292.054C44.9999 292.054 41.7465 292.026 40.8399 291.107C39.9199 290.2 45.7732 285.56 48.7732 284.827C51.7732 284.107 45.1065 280.334 45.1065 280.107C45.1065 279.894 45.0799 276.92 45.3865 276.614C45.6932 276.307 47.9999 273.947 47.9999 272.894C47.9999 271.827 42.2799 271.667 42.2799 270.614C42.2799 269.56 49.3865 267.494 49.3865 265.774C49.3865 264.054 42.8932 262.667 42.4399 260.494C41.9999 258.334 51.9732 252.692 51.4399 252.16C50.9199 251.64 47.9465 251 47.0532 251.334C46.1599 251.667 44.5599 254.494 43.6132 254.947C42.6665 255.387 42.4665 250.359 42.0532 249.947C41.6399 249.534 41.3332 250.107 41.3332 249.107C41.3332 248.107 45.5599 247 45.3332 245.72C45.1065 244.44 42.1065 244.054 41.1599 239.387C40.6265 236.707 44.0665 237.292 45.2132 236.4C46.0665 235.734 43.0532 234.654 43.0532 231.667C43.0532 230.827 43.6665 230.587 44.0799 228.507C44.5065 226.412 41.1732 226.16 41.1732 225.254C41.1732 224.334 40.5865 219.079 38.5065 219.079C36.4132 219.079 37.7465 226.587 36.8265 228.412C35.9199 230.254 32.7465 232.507 30.9999 232.507C29.2532 232.507 31.5065 221 30.3332 219.84C29.1599 218.667 23.8399 224.412 23.8399 225.494C23.8399 226.587 28.0799 227.547 28.0799 230.587C28.0799 232.079 26.7465 232.079 26.7465 232.079C26.7465 232.079 27.4932 236.079 25.1732 237.174C22.8265 238.254 24.2932 230.454 23.4132 229.587C22.5465 228.707 21.9999 223.494 19.1732 223.494C16.3332 223.494 16.1199 224.959 15.4932 225.587C14.8799 226.214 10.5865 225.174 10.5865 223.92C10.5865 222.667 15.9199 223.587 14.5865 220C13.2532 216.412 10.5865 216.412 9.49321 219C8.41321 221.587 7.99988 217.334 8.74655 215.92C9.49321 214.507 8.33321 213.494 8.74655 212.16C9.17321 210.827 10.8265 207.587 11.3332 208.079C11.8399 208.587 12.3732 212.787 12.7465 213.174C13.1199 213.547 14.1599 215 14.6665 214.507C15.1732 214 14.2132 202.626 14.8265 202C15.4532 201.374 17.8799 201.374 18.4132 201.92C18.9599 202.454 18.7865 204.959 19.3332 205.494C19.8799 206.04 23.1465 203.132 22.4132 200.079C21.9999 198.334 23.4932 199.334 23.9199 198.92C24.3332 198.507 22.3332 194.16 24.7465 193.254C27.1732 192.334 26.2532 196.799 26.7199 197.28C27.1999 197.746 27.9465 199.227 27.3332 200.28C26.7199 201.334 25.1065 207.28 25.4399 208.387C25.7732 209.494 27.9465 212.107 28.6132 212.107C29.2799 212.107 27.8399 209.626 27.8399 208.746C27.8399 207.88 29.2265 205.44 29.7065 205.92C30.1865 206.4 33.2132 205.746 33.2132 205.174C33.2132 204.587 33.2265 202.64 33.9999 201.88C34.7732 201.107 36.6265 201.827 37.1199 201.334C37.6265 200.84 35.9599 197.412 35.0399 197.412C34.1199 197.412 30.7865 195.334 30.7865 194.507C30.7865 193.667 32.0399 192.587 32.0399 192.079C32.0399 191.587 29.3732 191.079 29.3732 190.507C29.3732 189.92 30.9999 188.12 32.0799 188.12C33.1732 188.12 33.7065 189.587 34.2132 189.587C34.7065 189.587 38.0799 188.707 39.4132 189.626C40.7465 190.547 37.4532 193.746 37.7065 194.374C37.9599 195 40.9732 194.227 41.5465 194.787C42.1065 195.359 42.9599 198 41.4132 199.959C39.8799 201.92 39.1199 206.334 39.9599 206.707C40.7865 207.079 44.4532 205.746 44.4532 204.92C44.4532 204.079 45.1199 196.292 46.4532 195.587C47.7865 194.88 48.8799 200.827 50.2932 201.12C51.7065 201.412 49.3332 187.334 45.2932 183.292C41.2532 179.254 49.3332 185.547 51.2532 188.507C53.1732 191.454 56.7865 195.746 58.1599 196C59.5465 196.254 61.0532 192.667 62.6665 192.28C64.2799 191.894 65.4932 196.387 66.3865 197.28C67.2799 198.16 68.7199 194.44 69.6665 194.44C70.6132 194.44 72.4399 194.334 73.2799 195.614C74.1065 196.894 71.9999 198.334 71.9999 199.107C71.9999 199.894 72.8265 199.667 74.1599 200.507C75.4932 201.334 75.4132 204.026 75.8265 204.44C76.2532 204.867 74.9999 213.72 77.1065 214.72C79.2265 215.72 78.2265 212 78.7732 211.44C79.3332 210.894 81.2265 209.774 81.2265 209.227C81.2265 208.667 79.7732 206.774 79.9999 205.614C80.2265 204.44 83.9465 203.614 85.4399 202.107C85.9465 201.6 86.1065 201.214 86.0665 200.894C92.9065 201.906 97.4932 199.28 99.4399 197.334C101.387 195.387 108.44 197.107 110.773 197.107C113.107 197.107 117.227 201.44 118.333 201.44C118.333 201.44 122 204.92 122.507 206.587C123 208.254 122.413 209.587 123.413 210.587C124.413 211.587 133.253 219.174 133.253 220.667C133.253 222.16 132.92 223.254 129.587 223.254C126.253 223.254 121.413 227.079 120.827 229.84C120.253 232.587 119.453 236.12 120.507 237.174C121.547 238.214 124.413 236.254 125.333 237.174C126.253 238.079 124.627 242.454 125.333 243.174C126.04 243.88 126.373 249.707 126.92 250.254C127.147 250.48 128.667 252.107 130.733 254.014C130.733 254.014 122.333 256.667 121 261.667C119.667 266.667 115.667 267.84 115.667 270.507C115.667 273.174 116.507 277.334 120 278.507C123.493 279.667 119.827 287 120.827 288C121.84 289 125.333 288.334 125.333 285.494C125.333 282.667 125 280.494 126.333 279.174C127.667 277.84 129.347 280.787 130.733 282.16C132.12 283.547 133.333 285 135.493 285C137.667 285 140.92 282.667 140.92 282.667C142.827 282.667 150.253 285 150.827 287C151.4 288.934 148.28 296.12 154.533 302.32Z" stroke="black" stroke-width="1.5" stroke-miterlimit="10" stroke-linecap="round" stroke-linejoin="round"/>
<path class = "NorthGyeongSang" fill ="black" d="M340.893 311.107C339.588 321.253 335.52 337.707 333.56 342C331.693 346.093 330.733 349.573 330.52 352.2C328.48 351.427 324.36 350 322.333 350C319.56 350 317.893 354.04 316.44 354.04C315 354.04 313.56 349.667 311.56 347.667C309.56 345.667 300.173 344.613 298.667 346.107C297.16 347.613 296.667 350.44 294.773 350.44C293.36 350.44 289.453 354.692 287.573 356.813C285.773 355.347 277.08 355.56 275.667 355.56C274.227 355.56 274 358.44 272.893 359.56C271.773 360.667 270.107 359.333 267.227 360C264.333 360.667 263.893 362.667 262.08 362.667C260.28 362.667 256 360 251.773 360C247.56 360 244.907 359.56 244.907 356.893C244.907 354.227 238.893 351.107 238.893 351.107C240.333 349.667 239 347 241.56 344.44C244.107 341.893 247.773 345.56 250.44 345.56C253.107 345.56 256.44 344.44 256.44 341.333C256.44 338.227 248.667 333.773 254.667 333.773C260.667 333.773 260.333 330.56 261.333 329.56C262.333 328.56 262.333 323.44 261.333 322.44C260.333 321.44 261.333 318 261.333 315.333C261.333 312.667 255.373 307.373 253.493 309.267C251.613 311.147 247.56 311.227 242.227 311.227C236.893 311.227 238.667 315.773 238.667 318.307C238.667 320.853 238.08 322.587 236.893 321.387C235.693 320.187 227.56 315.107 226.44 321.387C225.333 327.667 236 328.227 235.107 332C234.227 335.773 230.667 333.107 227.56 336.227C224.44 339.333 227.453 342.333 226.453 343.333C225.453 344.333 224.893 343.333 223.773 344.44C222.667 345.56 224.667 348.893 225.773 350C226.893 351.107 226.44 354.227 225.773 354.893C225.667 355 225.427 354.987 225.093 354.867C223.267 354.333 218.507 351.333 215.333 351.333C211.56 351.333 206.227 355.107 206.227 351.333C206.227 347.56 210 346 210 343.56C210 341.107 204.773 336.107 202.667 334C200.56 331.893 194.667 330.667 189.773 330.667C184.893 330.667 178.853 321.387 178.853 321.387V307.173C180.16 307.173 180.507 304.745 182.16 304.745C183.84 304.745 183.921 301.412 184.413 300.92C184.921 300.412 188.507 297.173 188.507 295.745C188.507 294.333 191.413 288.253 193.08 287.84C194.747 287.412 194.08 279.745 192.507 279.745C190.921 279.745 188.293 279.627 187.588 280.333C186.88 281.04 187.04 282.213 185.921 281.079C184.787 279.96 183.588 276.587 182.255 276.079C180.921 275.587 179.947 277.412 178.853 277.412C177.747 277.412 174.933 278.333 174.507 276.92C174.08 275.493 175.627 273.453 176.253 272.827C176.88 272.213 177.493 271.253 177.493 268.827C177.493 266.412 177.04 255.987 177.667 255.347C178.293 254.72 180.333 253.84 180.333 253C180.333 252.16 178.667 246.412 173.587 244.253C168.507 242.079 168.253 242.745 168.92 241.253C169.587 239.745 174.547 240.453 175 240C175.453 239.547 177.84 236 179.333 236C180.827 236 182.16 238.667 183.921 238.667C185.667 238.667 186.413 238.079 186.413 236.827C186.413 235.587 184.255 233.333 182.16 232.587C180.08 231.84 178.16 229.587 180.08 228.745C182 227.92 187.08 225.587 189.667 226.079C192.255 226.587 193.747 229.84 195.747 229.333C197.747 228.827 198 226.667 196.16 224.827C194.333 223 192.333 219.667 195.173 216.827C198 214 200.707 215.293 201.413 214.587C202.12 213.88 202.827 212.412 204.507 212.92C206.16 213.412 207.173 216 208.921 216C210.667 216 211.413 214.667 210.827 212.667C210.255 210.667 215.667 209.745 217.255 210.507C218.827 211.253 221.255 217.412 223.08 217.412C224.921 217.412 230.493 215.745 232.16 214.079C233.84 212.412 231.333 206.587 233.08 203.84C234.827 201.079 242.507 195.587 243.173 194.079C243.84 192.587 245.255 188.92 248 188.079C250.747 187.253 251.573 189.587 253.493 189.04C254.308 189.692 255.347 190.24 256.827 190.587C262.747 192 264.213 189.88 265.173 188.92C266.12 187.96 265.08 180.412 270.413 179.493C275.747 178.587 274.507 185.587 276.507 186.587C278.507 187.587 282.16 185.253 285.08 186.827C288 188.412 287.747 189.493 290.08 189.493C292.413 189.493 296.747 185.173 299.84 185.173C302.921 185.173 303.84 189 307.921 189.412C312 189.84 310.213 186.213 312.747 183.667C315.293 181.12 320.36 178.093 323.053 178.093C323.347 180.453 323.787 183.787 326.333 184.667C330.413 186.079 324.827 215 331.84 220.253C338.826 225.493 321.493 238.079 325.84 242.412C330.173 246.745 330.12 248.213 328.16 250.16C326.213 252.12 329.747 260.412 324.747 268.16C322.96 270.947 323.653 274.173 323.333 277.333C322.773 283 322.547 288.453 324.413 290.745C327.333 294.333 327.588 301.173 322.667 303.667C320.227 304.907 321.853 307.093 325.347 307.587C328.893 308.107 334.08 306.587 339.493 301.173C340.627 300.04 341.947 302.867 340.893 311.107Z" stroke="black" stroke-width="1.5" stroke-miterlimit="10" stroke-linecap="round" stroke-linejoin="round"/>
<path class = "SouthGyeongSang" fill ="black" d="M306.56 382.773C306.56 382.773 302.333 385.84 300.16 385.84C298 385.84 294.413 382.745 292.667 384.507C290.921 386.253 292.827 390.667 291 390.667C289.173 390.667 286.16 388 285.093 390.667C284.027 393.333 287.84 394.507 286.333 397.84C284.827 401.173 281.667 399.493 278.333 401C275 402.507 274.333 404.333 272.827 404.333C271.333 404.333 271.667 407 268.827 407.84C266 408.667 260.827 407.493 259.84 410.507C258.827 413.493 263.173 416.987 263.173 416.987C260.413 416.88 258.04 416.707 257.227 415.893C255.773 414.44 253.107 411.227 250.44 411.227C247.773 411.227 248.72 404.613 247.56 403.44C246.387 402.28 244.667 402.333 244.667 404.773C244.667 407.227 245.613 411.28 246.893 412.56C248.173 413.827 245.893 417.56 244.44 417.56C243 417.56 237.893 416 235.56 416C233.227 416 230.667 420.893 228 420.893C225.333 420.893 225.107 422 225.107 423.56C225.107 425.107 228.16 426.28 232.56 421.893C236.947 417.507 236.667 426.893 235.667 427.893C234.667 428.893 228.493 431.533 230.56 436.56C231.333 438.44 233.44 441.667 235.333 441.667C237.227 441.667 238 438.56 239 438.56C240 438.56 247.921 439.667 248.747 438.827C249.588 438 246 434.92 246.747 433.412C247.493 431.92 251.747 435.92 254.333 428.745C256.921 421.587 256.667 423.079 257.255 423.667C257.84 424.253 257 432.587 258.413 433.079C259.84 433.587 258.293 439.627 259.588 440.92C260.88 442.213 264.507 440.667 261.255 445C258 449.333 258.493 450.587 259.413 451.493C260.333 452.412 258.667 454 257.173 453.412C255.667 452.827 255.173 450.745 253.413 451.745C251.667 452.745 251.747 457.173 252.588 458C253.413 458.827 252.921 460.507 251.333 460.507C249.747 460.507 251.333 464.667 248.255 464.667C245.173 464.667 244.627 461.547 245.921 460.253C247.213 458.96 244.827 455.079 243.84 455.079C242.827 455.079 243.507 457.253 242.747 458C242 458.745 239.413 457.745 241.333 455.173C243.255 452.587 241.921 451.173 243.173 450.667C244.413 450.16 247 448.827 247 446.827C247 444.827 244.255 444.253 243.667 445.92C243.08 447.587 241.667 448.079 239.747 448.079C237.84 448.079 238.507 450.16 237.667 449.333C236.827 448.507 236.667 445 235.493 445C234.333 445 230.12 445.213 229.588 445.745C229.04 446.293 229.453 448.627 230.08 449.253C230.707 449.88 231.373 452.453 230.667 453.173C229.96 453.88 222.413 454.079 220.747 453.493C219.08 452.92 221.921 449.412 222.507 449.412C223.08 449.412 219 446.92 220.507 446.412C222 445.92 226.04 446.627 226.827 445.84C227.627 445.04 225.493 442.507 224.588 442.507C223.667 442.507 223.255 444.253 222.16 442.333C221.08 440.412 221.627 438.88 222.413 438.079C223.213 437.293 222.08 433.412 221.227 432.56C220.36 431.692 219.053 436.44 218.227 438.72C217.387 441 215.72 436.613 212.667 435.773C209.613 434.947 208.747 439.133 208.16 439.72C207.588 440.307 201.84 439.507 201.227 440.107C200.613 440.72 200.827 441.387 200.333 441.387C199.84 441.387 191.227 432.72 191.773 430.493C192.333 428.28 194.387 425.16 192.227 423.827C190.053 422.493 186.773 424.72 186.28 425.227C185.773 425.72 187.56 427.947 185.333 429C183.107 430.053 180.667 423.893 179.72 423.893C178.773 423.893 182.187 430.025 175.84 433.107C173.84 434.079 170.093 433.76 166.653 432.92C166.653 419.493 152.333 405.827 150.333 403.84C149.64 403.147 149.12 401.627 148.573 399.787C148.573 399.787 148.16 392.16 150 388.667C151.84 385.173 154.507 383.493 154.507 380.16C154.507 376.827 154.373 365.84 151.52 364.333C148.667 362.827 148.747 356.253 150.827 354.16C152.92 352.079 153.493 344.507 156.827 339.333C160.16 334.16 175.533 322.6 178.853 321.387C178.853 321.387 184.893 330.667 189.773 330.667C194.667 330.667 200.56 331.893 202.667 334C204.773 336.107 210 341.107 210 343.56C210 346 206.227 347.56 206.227 351.333C206.227 355.107 211.56 351.333 215.333 351.333C218.507 351.333 223.267 354.333 225.093 354.867C225.427 354.987 225.667 355 225.773 354.893C226.44 354.227 226.893 351.107 225.773 350C224.667 348.893 222.667 345.56 223.773 344.44C224.893 343.333 225.453 344.333 226.453 343.333C227.453 342.333 224.44 339.333 227.56 336.227C230.667 333.107 234.227 335.773 235.107 332C236 328.227 225.333 327.667 226.44 321.387C227.56 315.107 235.693 320.187 236.893 321.387C238.08 322.587 238.667 320.853 238.667 318.307C238.667 315.773 236.893 311.227 242.227 311.227C247.56 311.227 251.613 311.147 253.493 309.267C255.373 307.373 261.333 312.667 261.333 315.333C261.333 318 260.333 321.44 261.333 322.44C262.333 323.44 262.333 328.56 261.333 329.56C260.333 330.56 260.667 333.773 254.667 333.773C248.667 333.773 256.44 338.227 256.44 341.333C256.44 344.44 253.107 345.56 250.44 345.56C247.773 345.56 244.107 341.893 241.56 344.44C239 347 240.333 349.667 238.893 351.107C238.893 351.107 244.907 354.227 244.907 356.893C244.907 359.56 247.56 360 251.773 360C256 360 260.28 362.667 262.08 362.667C263.893 362.667 264.333 360.667 267.227 360C270.107 359.333 271.773 360.667 272.893 359.56C274 358.44 274.227 355.56 275.667 355.56C277.08 355.56 285.773 355.347 287.573 356.813C287.613 356.84 287.641 356.867 287.667 356.893C287.667 356.893 287.773 359.107 286.667 360.227C285.56 361.333 284.44 365 285.56 366.107C286.667 367.227 289.667 368.44 292.107 369.667C294.56 370.893 294.893 372.893 297.107 375.107C299.333 377.333 304.56 375.893 306.56 377.893C307.667 379 305.613 381.84 306.56 382.773Z" stroke="black" stroke-width="1.5" stroke-miterlimit="10" stroke-linecap="round" stroke-linejoin="round"/>
<path class = "Gangwon" fill ="black" d="M323.053 178.094C320.359 178.094 315.293 181.12 312.747 183.667C310.213 186.214 312 189.84 307.92 189.412C303.84 189 302.92 185.174 299.84 185.174C296.747 185.174 292.413 189.494 290.08 189.494C287.747 189.494 288 188.412 285.08 186.827C282.16 185.254 278.507 187.587 276.507 186.587C274.507 185.587 275.747 178.587 270.413 179.494C265.08 180.412 266.12 187.959 265.173 188.92C264.213 189.88 262.747 192 256.827 190.587C250.92 189.174 252 184.827 246.667 182C241.333 179.174 236.84 184.334 232 179.494C227.16 174.667 224.413 184.254 219.667 179.494C214.92 174.746 231.667 168.334 222 169.374C212.333 170.399 212 162.334 210.827 166.507C209.667 170.667 205.493 167.667 203.333 167.667C201.173 167.667 200.333 172.334 198.16 172.334C196 172.334 190.333 163.174 188.507 163.174C186.667 163.174 183.84 166.507 183.84 171.466C183.84 176.44 176 175.494 171 175.494C166 175.494 164.107 167.44 164.107 167.44C164.107 167.44 165 166.44 166.44 165C167.893 163.56 164.773 154.44 167 152.227C169.227 150 170 144.56 171.107 142.44C172.227 140.334 170.28 138.16 169.667 137.56C169.053 136.947 169.107 133.334 169.893 131.667C170.667 130 173.28 130.614 174 129.894C174.72 129.174 176 124.107 172.893 124.107C169.773 124.107 168.227 122.334 166.667 122.334C165.107 122.334 162.173 123.614 160.893 122.334C159.613 121.054 158.227 117.774 155.893 117.107C153.56 116.44 148.84 116.947 147.773 115.894C146.72 114.84 148.227 108.894 147.333 108.894C146.44 108.894 145.947 105.16 146.893 104.227C147.84 103.28 149.333 97.1071 147.893 97.1071C146.44 97.1071 146.893 95.5605 146.893 92.6671C146.893 89.7738 152.44 88.6671 153.773 87.3338C155.107 86.0005 155 82.7738 153.773 81.5605C152.56 80.3338 150 79.3338 149.107 79.3338C148.227 79.3338 147.44 75.8938 146 74.4405C144.56 73.0005 142.44 74.4405 141.107 73.1071C139.773 71.7738 142.893 62.4405 138.893 61.3338C134.893 60.2271 125.773 61.5605 125.773 59.3338C125.773 57.1071 124.227 52.6671 122 52.6671C119.773 52.6671 116.227 55.7738 116.227 52.6671C116.227 49.5605 114.44 45.5605 110.893 44.2271C109.213 43.6005 107.08 43.8671 105.08 44.3205C106.973 39.7871 108.84 37.4938 121.333 37.4938C124.32 37.4938 123.573 34.5071 126.827 34.5071C135.12 34.5071 146.693 34.7738 154.507 33.9871C160.373 33.3991 163.173 31.2538 166.16 33.1738C179.667 41.8405 187.333 36.6671 193.493 37.4938C199.667 38.3338 199.667 37.6671 206 31.3338C212.333 25.0005 215.773 17.1071 217.107 11.1071C218.44 5.10713 225.493 1.41381 225.493 1.41381C226.08 2.00048 230.667 7.25379 231.173 15.0005C231.667 22.7471 238.333 21.4138 241.253 33.3338C244.16 45.2538 249.333 50.8271 250.507 53.0005C251.667 55.1738 251.413 65.0005 261.173 71.7458C270.92 78.5071 275.08 97.6671 277.173 98.1605C279.253 98.6671 288.92 108.827 290.587 112.827C292.253 116.827 291.08 119.84 295.253 122C299.413 124.16 302.253 140.507 304.92 141.92C307.587 143.334 312.507 145.894 312.507 154.92C312.507 156.667 319.587 162.254 320.747 165.84C321.92 169.412 320.92 175.587 322.253 175.587C322.747 175.587 322.88 176.667 323.053 178.094Z" stroke="black" stroke-width="1.5" stroke-miterlimit="10" stroke-linecap="round" stroke-linejoin="round"/>
<path class = "Gyeonggi" fill ="black" d="M67.0002 149.5C69.5002 149.5 74.6666 153.84 75.7733 154.333C76.8933 154.84 80.7733 158.56 77.7733 158.56C74.7733 158.56 75.1066 162.947 73.7733 162.947C72.4399 162.947 68.1066 158.16 66.8399 158.16C65.5599 158.16 60.7199 161.84 61.5066 162.613C62.2799 163.387 63.6933 167.413 63.1066 168C62.5333 168.587 60.9999 168.107 60.9999 168.893C60.9999 169.667 62.3866 170.893 62.3866 171.72C62.3866 172.56 63.9199 177.413 65.0533 176.28C66.1999 175.133 68.1066 172.893 68.7733 172.227C69.4399 171.56 75.4933 171.333 76.1066 171.947C76.7199 172.56 75.8399 173.72 75.2266 174.333C74.6133 174.947 71.1733 174.053 70.5599 174.667C69.9466 175.28 70.9999 182.227 70.4399 182.773C69.8933 183.333 68.1066 183.44 68.1066 184.613C68.1066 185.773 71.3866 187.56 72.1066 186.827C72.8399 186.107 73.9466 183.947 74.3866 183.947C74.8399 183.947 75.2266 185.16 75.6666 185.16C76.1066 185.16 77.8933 183.333 80.0533 183.613C82.2266 183.893 80.1733 186.44 79.7733 187.893C79.3866 189.333 73.8933 187.827 74.4399 190.053C74.9999 192.28 84.0533 198.827 84.7199 199.493C85.1599 199.933 85.9999 200.28 86.0666 200.893C92.9066 201.907 97.4933 199.28 99.4399 197.333C101.387 195.387 108.44 197.107 110.773 197.107C113.107 197.107 117.227 201.44 118.333 201.44C119.44 201.44 127.44 200.667 128.667 198.44C129.893 196.227 132.107 189.56 137.107 189.56C142.107 189.56 145.333 188.227 145.333 188.227C148.667 187.44 154 181.333 154 180.667C154 180 157.227 177.333 157.227 176.227C157.227 175.107 162.227 172.227 162.227 170.893C162.227 169.56 164.107 167.44 164.107 167.44C164.107 167.44 165 166.44 166.44 165C167.893 163.56 164.773 154.44 167 152.227C169.227 150 170 144.56 171.107 142.44C172.227 140.333 170.28 138.16 169.667 137.56C169.053 136.947 169.107 133.333 169.893 131.667C170.667 130 173.28 130.613 174 129.893C174.72 129.173 176 124.107 172.893 124.107C169.773 124.107 168.227 122.333 166.667 122.333C165.107 122.333 162.173 123.613 160.893 122.333C159.613 121.053 158.227 117.773 155.893 117.107C153.56 116.44 148.84 116.947 147.773 115.893C146.72 114.84 148.227 108.893 147.333 108.893C146.44 108.893 145.947 105.16 146.893 104.227C147.84 103.28 149.333 97.1066 147.893 97.1066C146.44 97.1066 146.893 95.5599 146.893 92.6666C146.893 89.7733 152.44 88.6666 153.773 87.3333C155.107 85.9999 155 82.7733 153.773 81.5599C152.56 80.3333 150 79.3333 149.107 79.3333C148.227 79.3333 147.44 75.8933 146 74.4399C144.56 72.9999 142.44 74.4399 141.107 73.1066C139.773 71.7733 142.893 62.4399 138.893 61.3333C134.893 60.2266 125.773 61.5599 125.773 59.3333C125.773 57.1066 124.227 52.6666 122 52.6666C119.773 52.6666 116.227 55.7733 116.227 52.6666C116.227 49.5599 114.44 45.5599 110.893 44.2266C109.213 43.5999 107.08 43.8666 105.08 44.3199C105.053 44.3866 105.027 44.4399 105 44.5066C103.84 47.3333 98.3333 55.1733 96.8266 55.1733C95.3333 55.1733 93.4133 55.5866 91.3333 57.6666C89.2533 59.7466 91.1733 62.6666 87.6666 63.84C84.1599 65 78.7466 67.5866 76.8266 69.4933C74.9199 71.4133 72.6666 75.9999 71.6666 76.9999C70.6666 77.9999 62.4933 76.4799 63.8266 90.8399C64.1333 90.6266 64.3866 90.5066 64.5866 90.5066C66.0799 90.5066 69.6266 88.5466 70.5066 87.6666C71.3733 86.7866 75.8399 88.3333 69.4933 91.0799C63.1733 93.8399 64.2933 96.3733 64.7466 96.8266C65.2133 97.2933 64.7466 107.253 65.7466 108.92C66.4533 110.093 76.5599 117.587 82.5199 121.947C82.5199 121.947 85.2799 117.053 86.6666 115.667C88.0533 114.28 90.56 113.44 92.1066 113.44C93.6666 113.44 94.6666 110.227 96.3333 109.773C98 109.333 104.067 108.76 105.08 109.773C106.093 110.8 107.893 112.333 107.893 113.667C107.893 115 105.08 119.627 105.08 122.653C105.08 125.667 106.827 125.827 107.893 124.773C108.947 123.72 111.107 121.867 111.893 122.653C112.68 123.44 114.56 125.227 114.56 126.56C114.56 127.893 113.107 130.667 109.893 130.667C106.667 130.667 106.227 137.56 104.44 138.333C102.667 139.107 100.853 141.107 98.5333 138.773C97.4399 137.68 86.3866 142.28 78.4399 134.333C76.9999 132.893 75.8666 121.68 77.1999 120.347C71.1199 116 63.3999 110.333 62.6666 110.333C61.4933 110.333 63.8399 102.16 62.9999 101.333C62.1599 100.507 61.9999 97.9999 60.3333 97.9999C58.6666 97.9999 57.9999 101.493 57.9999 101.493C57.9999 101.493 50.0335 100.533 48.5002 99C46 100.5 47.4999 112 50.8335 113.173C52.3668 114.707 64 114.5 64 114.5C69.1611 118.094 69.2583 125.881 66.5 128C70.5 132.5 70 134 71.5 135.5C71.5 135 69.608 150.602 67.0002 149.5ZM67.0002 149.5C66.5002 150.5 67.0002 151.5 66.0002 151.5" stroke="black" stroke-width="1.5" stroke-miterlimit="10" stroke-linecap="round" stroke-linejoin="round"/>
</svg>

